<?xml version="1.0" encoding="UTF-8"?>
<svg width="70px" height="60px" viewBox="0 0 70 60" version="1.1" xmlns="http://www.w3.org/2000/svg" xmlns:xlink="http://www.w3.org/1999/xlink">
    <!-- Generator: Sketch 48.2 (47327) - http://www.bohemiancoding.com/sketch -->
    <title>Artboard</title>
    <desc>Created with Sketch.</desc>
    <defs>
        <path d="M15,41 C12.5093079,41 0,22.7769207 0,14.6731589 C0,6.56939699 6.71572875,0 15,0 C23.2842712,0 30,6.56939699 30,14.6731589 C30,22.7769207 17.4906921,41 15,41 Z M15,21 C18.3137085,21 21,18.3137085 21,15 C21,11.6862915 18.3137085,9 15,9 C11.6862915,9 9,11.6862915 9,15 C9,18.3137085 11.6862915,21 15,21 Z" id="path-1"></path>
    </defs>
    <g id="Page-1" stroke="none" stroke-width="1" fill="none" fill-rule="evenodd">
        <g id="Artboard">
            <g id="ic_adressedata" transform="translate(20.000000, 8.000000)">
                <ellipse id="Oval-3" fill="#DEDEDE" cx="15.5" cy="42" rx="11.5" ry="2"></ellipse>
                <g id="Combined-Shape">
                    <use fill="#0097A7" fill-rule="evenodd" xlink:href="#path-1"></use>
                    <path stroke="#FFFFFF" stroke-width="1" d="M15,41.5 C11.5409885,41.5 -0.5,22.0002335 -0.5,14.6731589 C-0.5,6.29075918 6.44202174,-0.5 15,-0.5 C23.5579783,-0.5 30.5,6.29075918 30.5,14.6731589 C30.5,22.0002335 18.4590115,41.5 15,41.5 Z M15,20.5 C18.0375661,20.5 20.5,18.0375661 20.5,15 C20.5,11.9624339 18.0375661,9.5 15,9.5 C11.9624339,9.5 9.5,11.9624339 9.5,15 C9.5,18.0375661 11.9624339,20.5 15,20.5 Z"></path>
                </g>
            </g>
            <rect id="Rectangle-11" fill-opacity="0" fill="#FFFFFF" x="0" y="0" width="70" height="60"></rect>
        </g>
    </g>
</svg>