<?xml version="1.0" encoding="UTF-8"?>
<svg width="47px" height="43px" viewBox="0 0 47 43" version="1.1" xmlns="http://www.w3.org/2000/svg" xmlns:xlink="http://www.w3.org/1999/xlink">
    <!-- Generator: Sketch 48.2 (47327) - http://www.bohemiancoding.com/sketch -->
    <title>ic_faq</title>
    <desc>Created with Sketch.</desc>
    <defs>
        <path d="M3.4299687,21.9840639 C1.26086957,19.6795884 0,16.725677 0,13.5215665 C0,6.06066659 6.96050435,0 15.4829739,0 C21.2829739,0 26.3778957,2.80527433 29,6.91152368 C17.5003652,6.91152368 8.01812174,14.8246449 7.06086957,24.8406201 C4.89177043,26.1434981 2.52173913,26.092617 1.16050435,25.8930987 C0.756632696,25.8422376 0.656156522,25.3414188 1.00880661,25.1419006 C2.26967617,24.2381091 3.02619791,23.0369933 3.43007965,21.9845147 L3.4299687,21.9840639 Z" id="path-1"></path>
    </defs>
    <g id="Desktop-HD-Copy-8" stroke="none" stroke-width="1" fill="none" fill-rule="evenodd" transform="translate(-747.000000, -95.000000)">
        <g id="ic_faq" transform="translate(747.000000, 95.000000)">
            <path d="M28.5000398,10 C18.2561133,10 10,17.3901292 10,26.4999995 C10,35.6098698 18.2566107,43 28.5000398,43 C32.1794584,43 35.6605434,42.0392123 38.545533,40.3686636 C41.1312318,41.9383964 43.9653947,41.8869763 45.6070687,41.6853445 C46.0538865,41.6339446 46.2034624,41.0270035 45.8052234,40.7245558 C44.2141772,39.6609279 43.3691204,38.1940363 42.8717941,36.8773564 C45.4574929,34.0423648 47,30.4503429 47,26.5022264 C47,17.3903317 38.6951487,10.0007085 28.4999602,10.0007085 L28.5000398,10 Z M30,33.1664197 C30,33.6114293 29.686879,34 29.328278,34 L27.671722,34 C27.313121,34 27,33.6114293 27,33.1664197 L27,31.8335803 C27,31.3885707 27.313121,31 27.671722,31 L29.328278,31 C29.686879,31 30,31.3885707 30,31.8335803 L30,33.1664197 Z M33.1897062,25.9864787 C32.6850137,26.7154478 32.0797865,27.2896987 31.271471,27.7071461 C30.8673234,28.0207321 30.5657091,28.3322746 30.4138976,28.6458815 C30.3133528,28.9065255 30.2620962,29.1671695 30.2128079,29.531654 C30.2128079,29.792298 29.9604617,30 29.7081155,30 L27.3857226,30 C27.0821198,30 26.8297534,29.739356 26.8810301,29.4257492 C26.9322867,28.7476578 27.0821198,28.2263698 27.334466,27.8618852 C27.6380688,27.3935393 28.2433162,26.8193093 29.1521664,26.1941807 C29.6056023,25.8805947 29.9604819,25.5690522 30.2128281,25.0986419 C30.4651743,24.6812049 30.6169757,24.1599065 30.6169757,23.6386185 C30.6169757,23.0643677 30.4651743,22.5960426 30.1635398,22.231558 C29.859937,21.867063 29.4577779,21.71027 28.9018087,21.71027 C28.4483728,21.71027 28.0934932,21.867063 27.791889,22.127707 C27.5907993,22.2845 27.4882862,22.545144 27.3877414,22.8057984 C27.2871965,23.1702934 26.9835937,23.3800493 26.6307027,23.3800493 L24.4601213,23.3271073 C24.2077751,23.3271073 23.9554288,23.0664633 24.0066854,22.8058193 C24.1072302,21.6064399 24.5113779,20.7206674 25.3196933,20.0955388 C26.2285435,19.3665697 27.4389979,19 28.9038174,19 C30.5184295,19 31.7309027,19.417437 32.6377341,20.2502571 C33.5465843,21.0851519 34,22.1786056 34,23.5856661 C33.9467701,24.4734717 33.6944239,25.3083665 33.1897162,25.9864579 L33.1897062,25.9864787 Z" id="Page-1" fill="#0097A7"></path>
            <g id="Path">
                <use fill="#0097A7" xlink:href="#path-1"></use>
                <use fill-opacity="0.1" fill="#000000" xlink:href="#path-1"></use>
            </g>
        </g>
    </g>
</svg>