<?xml version="1.0" encoding="UTF-8"?>
<svg width="50px" height="50px" viewBox="0 0 50 50" version="1.1" xmlns="http://www.w3.org/2000/svg" xmlns:xlink="http://www.w3.org/1999/xlink">
    <!-- Generator: Sketch 48.2 (47327) - http://www.bohemiancoding.com/sketch -->
    <title>Page 1</title>
    <desc>Created with Sketch.</desc>
    <defs>
        <path d="M20.6536325,36.8744272 C21.5783774,36.8764199 22.4831733,36.6033813 23.2504692,36.0891721 C27.7526121,33.0658048 33.3887345,32.26264 38.5565917,33.9048864 C38.72201,33.9567027 38.893408,33.9846058 39.0667957,33.9866007 C40.0413876,33.9786287 40.8246019,33.1854272 40.8226121,32.2108339 L40.8226121,15.8843032 L40.4857957,15.8843032 C38.8834488,15.8843032 34.7857968,13.1749227 29.6238365,5.61861956 C28.8007243,4.11591548 28.1490406,2.52749712 27.6786835,0.87928283 C25.0180712,1.74423181 22.5985814,3.22101752 20.6133774,5.19009916 C18.1360814,2.65499712 14.937357,0.94305834 11.4536835,0.293313442 C7.969959,-0.358370231 4.36847992,0.0820583405 1.14399012,1.55290528 C0.452408488,1.86381344 0.00597991657,2.54938487 1.05288121e-05,3.30872161 L1.05288121e-05,32.4561726 C-0.00198232833,33.0361216 0.279030937,33.5782134 0.753377876,33.9090808 C1.2296993,34.2419073 1.83557175,34.317642 2.37766359,34.1143563 C7.59552022,32.2070583 13.4108263,32.9305298 18.0006223,36.0575196 C18.7842447,36.591417 19.7069998,36.8744272 20.6536325,36.8744272 Z" id="path-1"></path>
    </defs>
    <g id="Desktop-HD-Copy-8" stroke="none" stroke-width="1" fill="none" fill-rule="evenodd" transform="translate(-674.000000, -89.000000)">
        <g id="Page-1" transform="translate(674.000000, 89.000000)">
            <g id="Path-2" transform="translate(0.000000, 13.000000)">
                <mask id="mask-2" fill="white">
                    <use xlink:href="#path-1"></use>
                </mask>
                <use id="Mask" fill="#0097A7" xlink:href="#path-1"></use>
                <polygon fill-opacity="0.1" fill="#252525" mask="url(#mask-2)" points="-3.37548828 36.0400391 -5 -1 19.8276367 -1 19.8276367 39.1933594"></polygon>
            </g>
            <path d="M40.4290344,0 L39.8211772,0 C37.415667,0.169403061 35.165565,1.24959184 33.5272997,3.01739796 C31.8890854,4.78719388 30.9842384,7.11494898 31.0002078,9.52658163 C31.0619884,15.8321939 36.3017384,21.7714796 38.9343915,24.352602 C39.755514,25.1657653 41.0768405,25.1657653 41.8979629,24.352602 C44.550616,21.7457653 49.8321466,15.7607653 49.8321466,9.41331633 C49.8321466,6.91811224 48.8416364,4.52653061 47.0778609,2.76076531 C45.3160752,0.996989796 42.9244936,0.0025 40.4293915,0.000459183673 L40.4290344,0 Z M40.4290344,13.177551 C38.9063813,13.177551 37.533218,12.2607653 36.9492895,10.8537245 C36.3673507,9.44668367 36.6902027,7.82836735 37.7664323,6.75015306 C38.8426568,5.67392857 40.4629629,5.35107143 41.8700038,5.935 C43.2770446,6.51693878 44.1938303,7.89010204 44.1938303,9.4127551 C44.1938303,11.4934184 42.5077589,13.1775 40.4290854,13.1775 L40.4290344,13.177551 Z" id="Fill-2" fill="#0097A7"></path>
        </g>
    </g>
</svg>