<?xml version="1.0" encoding="UTF-8"?>
<svg width="70px" height="60px" viewBox="0 0 70 60" version="1.1" xmlns="http://www.w3.org/2000/svg" xmlns:xlink="http://www.w3.org/1999/xlink">
    <!-- Generator: Sketch 48.2 (47327) - http://www.bohemiancoding.com/sketch -->
    <title>Artboard</title>
    <desc>Created with Sketch.</desc>
    <defs>
        <path d="M36.6921548,4.42252868 C36.5864309,4.09141398 36.348551,3.81257703 36.0257197,3.6417977 L29.5010445,0.278364052 L29.5010445,0.276619676 C28.9894133,0.0152131007 28.3550699,0.0622666412 27.8963127,0.39686563 L22.0096058,3.39607713 L15.9585737,0.179063995 C15.5092459,-0.0596879983 14.9579785,-0.0596879983 14.5086459,0.179063995 L7.99363685,3.5389732 C7.66702611,3.7062727 7.421592,3.98510519 7.31207412,4.31448443 L0.0624335689,26.1749517 C-0.0999293483,26.6681506 0.0605457629,27.204892 0.472115507,27.5516704 C0.885572091,27.900211 1.47836541,27.9978024 1.99565133,27.804364 L10.9272081,24.4235312 L21.5600122,27.6179255 L21.5600122,27.6161856 C21.8432024,27.6980909 22.1471363,27.6980909 22.4303555,27.6161856 L33.2366675,24.5821312 L42.0043811,27.9019777 C42.521667,28.0954161 43.1144941,27.9978247 43.526032,27.6510285 C43.9394886,27.3024879 44.0999617,26.7674641 43.9375988,26.2725699 L36.6921548,4.42252868 Z" id="path-1"></path>
    </defs>
    <g id="Page-1" stroke="none" stroke-width="1" fill="none" fill-rule="evenodd">
        <g id="Artboard">
            <g id="ic_matrikelkort" transform="translate(13.000000, 14.000000)">
                <path d="M34.6886792,12.7907389 C34.5973722,12.5069263 34.3919304,12.2679232 34.1131215,12.1215409 L28.4781748,9.23859776 C28.0363115,9.0130398 27.4884694,9.05337141 27.0922701,9.34017054 L22.0082959,11.9109233 L16.7824045,9.15348342 C16.3943487,8.94883886 15.9182541,8.94883886 15.5301941,9.15348342 L9.90359546,12.0334056 C9.62152255,12.1768052 9.40955673,12.4158044 9.3149731,12.6981295 L3.0539199,31.4356729 C2.91369738,31.8584148 3.05228952,32.3184789 3.40773612,32.6157175 C3.76481226,32.9144666 4.27677013,32.9981163 4.72351706,32.832312 L12.4371343,32.078901 L21.6200105,29.6725076 C21.9580517,29.7183164 22.208605,29.7178193 22.3716707,29.6710162 L31.7043947,32.2148438 L39.2765109,32.9159809 C39.7232578,33.0817852 40.2352449,32.9981355 40.590664,32.7008815 C40.9477401,32.4021325 41.0863306,31.9435406 40.9461081,31.5193456 L34.6886792,12.7907389 Z" id="Mask" fill="#DEDEDE"></path>
                <g id="Path-2">
                    <mask id="mask-2" fill="white">
                        <use xlink:href="#path-1"></use>
                    </mask>
                    <g id="Mask">
                        <use fill="#0097A7" fill-rule="evenodd" xlink:href="#path-1"></use>
                        <path stroke="#FFFFFF" stroke-width="1" d="M37.1675462,4.26757849 L44.4126844,26.1167057 C44.6393481,26.8075934 44.4159789,27.5547666 43.8482292,28.0333751 C43.2975395,28.4974324 42.5144128,28.6265193 41.8273262,28.3695796 L33.2134509,25.1079831 L22.5692607,28.0965035 C22.4031618,28.1445384 22.2318755,28.1712383 22.0600122,28.1766029 L22.0600122,28.2902165 L10.945685,24.9511591 L2.1707813,28.2726903 C1.48512145,28.5290919 0.702082193,28.3994869 0.14994255,27.9340375 C-0.416141913,27.4570689 -0.639391547,26.707838 -0.412149686,26.0175645 L6.83761368,4.15672737 C6.98909514,3.70114104 7.32404137,3.32018133 7.76445954,3.09458851 L14.2740345,-0.262475936 C14.8700637,-0.579174862 15.5971622,-0.579174862 16.193288,-0.262421224 L22.0147903,2.83256309 L27.6016757,-0.0071010079 C28.2131876,-0.453113138 29.0494452,-0.515596732 29.7285353,-0.168630745 L30.0010445,-0.0293982309 L30.0010445,-0.0264117548 L36.2595231,3.19982941 C36.695472,3.43044852 37.0210009,3.81127904 37.1675462,4.26757849 Z"></path>
                    </g>
                    <polygon fill-opacity="0.1" fill="#252525" mask="url(#mask-2)" points="11 24.5864258 15.7930908 -3 22.0097656 2.89428711 22.0097656 28.937561"></polygon>
                    <polygon id="Path-2-Copy" fill-opacity="0.1" fill="#252525" mask="url(#mask-2)" points="33.3093262 24.9309692 27.8823242 -5.24926758 44.0097656 2.89428711 44.0097656 28.937561"></polygon>
                </g>
            </g>
            <rect id="Rectangle-11" fill-opacity="0" fill="#FFFFFF" x="0" y="0" width="70" height="60"></rect>
        </g>
    </g>
</svg>