<?xml version="1.0" encoding="UTF-8"?>
<svg width="166px" height="51px" viewBox="0 0 166 51" version="1.1" xmlns="http://www.w3.org/2000/svg" xmlns:xlink="http://www.w3.org/1999/xlink">
    <!-- Generator: Sketch 48.2 (47327) - http://www.bohemiancoding.com/sketch -->
    <title>Group 10</title>
    <desc>Created with Sketch.</desc>
    <defs></defs>
    <g id="Desktop-HD-Copy-6" stroke="none" stroke-width="1" fill="none" fill-rule="evenodd" transform="translate(-1031.000000, -984.000000)">
        <g id="footer" transform="translate(0.000000, 905.000000)" fill="#FFFFFF">
            <g id="Group-10" transform="translate(1030.000000, 77.000000)">
                <path d="M35,29 L35,2 L42.9005587,2 C45.2646137,2 47.3622216,2.53158809 49.1934456,3.59478022 C51.0246695,4.65797235 52.4424688,6.16619902 53.4468859,8.11950549 C54.451303,10.072812 54.9535041,12.310427 54.9535041,14.8324176 L54.9535041,16.1861264 C54.9535041,18.7452051 54.4482408,20.9951826 53.4376992,22.9361264 C52.4271576,24.8770701 50.9879229,26.3729343 49.119952,27.4237637 C47.2519811,28.4745932 45.1115023,29 42.6984514,29 L35,29 Z M39.6484683,5.78296703 L39.6484683,25.2541209 L42.680078,25.2541209 C45.1176269,25.2541209 46.988632,24.4845544 48.2931493,22.9453984 C49.5976667,21.4062423 50.2621644,19.196443 50.2866624,16.3159341 L50.2866624,14.8138736 C50.2866624,11.8839139 49.6558489,9.64629894 48.394203,8.10096154 C47.1325571,6.55562414 45.3013606,5.78296703 42.9005587,5.78296703 L39.6484683,5.78296703 Z M72.2906371,22.7135989 L61.9280438,22.7135989 L59.7599835,29 L54.9277813,29 L65.0331471,2 L69.2039072,2 L79.3276463,29 L74.4770708,29 L72.2906371,22.7135989 Z M63.2325547,18.9306319 L70.9861262,18.9306319 L67.1093404,7.73008242 L63.2325547,18.9306319 Z M100.743672,22.3241758 L104.859312,2 L109.471034,2 L103.297574,29 L98.851213,29 L93.7617833,9.28777473 L88.5621133,29 L84.097379,29 L77.9239192,2 L82.5356406,2 L86.6880273,22.2870879 L91.7958304,2 L95.6909895,2 L100.743672,22.3241758 Z M125.962991,22.7135989 L115.600397,22.7135989 L113.432337,29 L108.600135,29 L118.705501,2 L122.876261,2 L133,29 L128.149424,29 L125.962991,22.7135989 Z M116.904908,18.9306319 L124.65848,18.9306319 L120.781694,7.73008242 L116.904908,18.9306319 Z" id="DAWA"></path>
                <text id="Danmarks-Adressers-W" font-family="Roboto-Regular, Roboto" font-size="14" font-weight="normal" line-spacing="24" letter-spacing="-0.699999988" fill-opacity="0.6">
                    <tspan x="0" y="48">Danmarks Adressers Web API</tspan>
                </text>
            </g>
        </g>
    </g>
</svg>