<?xml version="1.0" encoding="UTF-8"?>
<svg width="70px" height="60px" viewBox="0 0 70 60" version="1.1" xmlns="http://www.w3.org/2000/svg" xmlns:xlink="http://www.w3.org/1999/xlink">
    <!-- Generator: Sketch 48.2 (47327) - http://www.bohemiancoding.com/sketch -->
    <title>Artboard</title>
    <desc>Created with Sketch.</desc>
    <defs></defs>
    <g id="Page-1" stroke="none" stroke-width="1" fill="none" fill-rule="evenodd">
        <g id="Artboard">
            <g id="Group" transform="translate(10.000000, 12.000000)">
                <ellipse id="Oval-3-Copy" fill="#DEDEDE" cx="25.5" cy="34.5" rx="25.5" ry="1.5"></ellipse>
                <path d="M46,30.6924184 L48,30.6923688 L48,34 L3,34 L3,30.6923688 L5,30.6902147 L5,-1.13686838e-13 L27,-1.13686838e-13 L27,30.6902147 L29,30.6902147 L29,7 L46,7 L46,30.6924184 Z M8,3 L8,7 L12,7 L12,3 L8,3 Z M8,10 L8,14 L12,14 L12,10 L8,10 Z M8,17 L8,21 L12,21 L12,17 L8,17 Z M8,24 L8,28 L12,28 L12,24 L8,24 Z M14,3 L14,7 L18,7 L18,3 L14,3 Z M14,10 L14,14 L18,14 L18,10 L14,10 Z M14,17 L14,21 L18,21 L18,17 L14,17 Z M14,24 L14,28 L18,28 L18,24 L14,24 Z M20,3 L20,7 L24,7 L24,3 L20,3 Z M20,10 L20,14 L24,14 L24,10 L20,10 Z M20,17 L20,21 L24,21 L24,17 L20,17 Z M20,24 L20,28 L24,28 L24,24 L20,24 Z M32,10 L32,14 L36,14 L36,10 L32,10 Z M32,17 L32,21 L36,21 L36,17 L32,17 Z M32,24 L32,28 L36,28 L36,24 L32,24 Z M39,10 L39,14 L43,14 L43,10 L39,10 Z M39,17 L39,21 L43,21 L43,17 L39,17 Z M39,24 L39,28 L43,28 L43,24 L39,24 Z" id="Combined-Shape" fill="#0097A7"></path>
            </g>
            <rect id="Rectangle-11" fill-opacity="0" fill="#FFFFFF" x="0" y="0" width="70" height="60"></rect>
        </g>
    </g>
</svg>