<?xml version="1.0" encoding="UTF-8"?>
<svg width="70px" height="60px" viewBox="0 0 70 60" version="1.1" xmlns="http://www.w3.org/2000/svg" xmlns:xlink="http://www.w3.org/1999/xlink">
    <!-- Generator: Sketch 48.2 (47327) - http://www.bohemiancoding.com/sketch -->
    <title>Artboard</title>
    <desc>Created with Sketch.</desc>
    <defs></defs>
    <g id="Page-1" stroke="none" stroke-width="1" fill="none" fill-rule="evenodd">
        <g id="Artboard">
            <g id="Page-1" transform="translate(13.000000, 3.000000)" fill="#0097A7">
                <path d="M6.04435897,48.9069072 L5.69179487,48.9556361 L5.5044959,48.7895191 L5.69179487,48.1029263 L5.71603436,47.5580634 L5.45822256,46.8957954 L5.57500872,46.06745 L5.78654718,45.3808572 L6.02232513,45.2634691 L5.95181231,45.0021113 L5.59924821,44.9312351 L5.97605179,44.765118 L5.97605179,44.3154959 L5.69400051,43.3453979 L5.78875282,43.1084046 L5.57721436,42.9666521 L5.67196667,42.7540232 L5.83723179,41.8548015 L5.67196667,41.6178082 L5.03735128,40.0098237 L4.28376667,39.8680711 L3.64915128,39.748466 L3.08504872,39.0618732 L2.42617692,38.1626515 L2.25650615,37.9345206 L2.37329231,37.6731629 L2.23226667,37.4361696 L1.87970256,37.5779222 L1.76291641,38.1471438 L2.02072821,38.6897897 L2.44380513,39.2102881 L2.39753179,39.589034 L2.13751436,39.5425222 L1.66595846,39.0929 L1.00928667,38.596766 L0.491457436,38.3841371 L0.185166667,38.3132608 L0.0683805128,38.0053912 L0.962990769,35.1681284 L1.05774308,34.5280304 L1.05774308,33.8414376 L0.868238462,32.6587108 L0.467195385,30.6232572 L0.301930256,29.4870253 L0.34820359,28.7295562 L0.513468718,27.3563139 L0.749246667,25.8657005 L0.654494359,24.9443088 L0.678733846,24.0450871 L0.702973333,22.3418448 L0.727212821,21.0882361 L0.914511795,19.9055093 L1.15028974,19.0771639 L1.41030718,18.532301 L1.71659795,18.6740536 L1.59981179,19.0527995 L1.57557231,19.2897928 L1.59981179,19.4315454 L1.33979436,19.5976624 L1.33979436,19.7859268 L1.55133282,20.069432 L1.8333841,20.2820608 L2.02068308,20.4238134 L2.32697385,20.6364423 C2.32697385,20.6364423 2.42172615,20.7538304 2.49223897,20.7781948 C2.56275179,20.8025593 3.19736718,20.7781948 3.31633641,20.7781948 C3.43532821,20.7781948 4.37622872,21.1569407 4.39828513,21.2521814 C4.42251897,21.3474222 5.10341333,22.0805268 5.10341333,22.0805268 C5.10341333,22.0805268 5.69177231,22.6253897 5.80854154,22.6475371 C5.92532769,22.6719015 6.60843897,22.2444268 6.60843897,22.2444268 L6.70319128,21.6065402 L6.60843897,20.8977773 C6.60843897,20.8977773 5.99588,20.4481552 5.97382359,20.3772789 C5.9495841,20.3064026 6.11484923,19.9032923 6.11484923,19.9032923 L6.60843897,19.6441515 L7.15050769,18.8401309 L7.57358462,18.7936191 L8.11565333,18.7471072 L8.28091846,18.4148732 L7.92835436,18.2731206 L7.76308923,17.8943747 L7.76308923,17.6108696 L8.11565333,17.2321237 L8.56296974,16.8777423 L9.26809795,16.9242541 L9.73965385,17.2077593 L10.0922179,17.7526222 L10.4447821,18.2487562 L10.4447821,18.6275021 L10.0679785,19.2432186 L9.76168769,19.6684763 L9.47963641,20.1889747 L9.52590974,20.7803665 L9.78372154,20.8756072 L10.0194995,20.5455902 L10.0657728,20.1203325 L10.2773113,19.7880985 L10.7951405,19.7172222 L11.3834995,19.8124629 L11.5707985,20.0250918 L11.5950379,20.4990784 L11.7360636,20.5478072 C11.7360636,20.5478072 11.8770892,20.0981851 11.9013287,20.0273088 C11.9255682,19.9564325 11.9255682,19.7903155 11.9255682,19.7194392 C11.9255682,19.6485629 11.8792892,19.0571711 11.8792892,19.0571711 L11.174161,18.8445423 L10.9626226,19.0815356 L10.7268446,19.2476526 L10.6078528,18.9862948 L10.8678703,18.5366727 L11.1499215,17.9452809 L11.0088959,17.4491469 L10.7510841,17.3073943 L10.585819,16.7160026 L10.7973574,16.4568619 L10.9626226,16.0072397 L10.8436308,15.6750057 L10.6563318,15.2718954 L10.585819,14.7979088 L10.9163492,14.3239222 L11.3879051,13.9451763 L12.0004641,13.4711897 L12.8950744,13.3538015 L13.7191718,13.3294371 L14.0717359,13.5664304 L14.0959754,13.9695407 L14.4022662,14.1112933 L14.9663687,13.6616711 L15.5789277,12.8111557 L16.1209964,12.6450387 L16.850381,12.6450387 L17.2734579,12.5032861 L17.3682103,12.1245402 L16.4030872,11.8166706 L15.5569333,11.8410351 L14.9685744,12.2441454 L14.6160103,12.6228912 C14.6160103,12.6228912 14.333959,12.718132 14.2149672,12.718132 C14.0959754,12.718132 13.509839,12.6716201 13.4393262,12.718132 C13.3688133,12.7646438 12.3573774,12.9551253 12.3573774,12.9551253 L11.9563344,13.0725134 C11.9563344,13.0725134 11.5795308,13.214266 11.5552913,13.2851423 C11.5310518,13.3560186 11.224761,13.4512593 11.1542482,13.4512593 C11.0837354,13.4512593 10.7532051,13.3316541 10.7532051,13.3316541 L10.2111364,12.9994201 L9.78805949,12.9285438 L9.50600821,13.0946608 L9.19971744,13.2607778 C9.19971744,13.2607778 8.72816154,13.3095067 8.63561487,13.3316541 C8.54086256,13.3560186 8.0472559,13.3560186 8.0472559,13.3560186 L7.69469179,13.5221356 L7.20110205,14.0891459 L6.72954615,14.208751 L6.28222974,14.208751 L5.76440051,14.4213799 C5.76440051,14.4213799 5.66964821,14.7292495 5.69388769,14.8001258 C5.71812718,14.8710021 5.95390513,15.2032361 6.02441795,15.2032361 C6.09493077,15.2032361 6.49597385,15.1788716 6.56648667,15.2032361 C6.63699949,15.2276005 7.01380308,14.9197309 7.01380308,14.9197309 C7.01380308,14.9197309 7.41484615,14.5653495 7.46111949,14.4944732 C7.50739282,14.4235969 7.69689744,14.2818443 7.69689744,14.2818443 L8.19048718,14.4701088 L8.40202564,14.7779784 L8.35575231,15.1345768 L8.23676051,15.418082 L7.93046974,15.6550753 L7.76299897,15.6572866 L7.43246872,15.6329278 L7.33771641,15.8699211 L7.3619559,16.1290619 L7.57349436,16.5543196 L7.61976769,16.908701 C7.61976769,16.908701 7.45450256,17.2874469 7.43026308,17.3583232 C7.40602359,17.4291995 7.19448513,17.7127046 7.19448513,17.7127046 L6.84192103,18.1844742 L6.72734051,18.2575675 L6.49156256,18.6363134 L6.35053692,18.8245778 L5.85694718,18.8489366 C5.85694718,18.8489366 5.43387026,18.4945552 5.36335744,18.4701907 C5.29284462,18.4458263 4.96231436,18.1158093 4.86976769,18.1379567 C4.77722103,18.1623211 4.47093026,18.2797093 4.47093026,18.2797093 C4.47093026,18.2797093 4.40041744,18.4214619 4.44669077,18.5167026 C4.4929641,18.6119433 4.63398974,18.704967 4.75298154,18.7293314 C4.86976769,18.7514845 5.03503282,18.8002077 5.03503282,18.8002077 C5.03503282,18.8002077 5.29284462,19.0593485 5.3170841,19.1545892 C5.34132359,19.2498299 5.43387026,19.7215995 5.45810974,19.7924758 C5.48234923,19.8633521 5.01079333,20.3594861 5.01079333,20.3594861 L4.70450256,20.4082149 C4.70450256,20.4082149 4.23294667,20.4303624 4.23294667,20.3594861 C4.23294667,20.2886098 4.06768154,19.7437696 4.06768154,19.7437696 L4.04344205,19.2232711 L3.99496872,18.4192505 L4.25498615,18.0161402 C4.25498615,18.0161402 4.39601179,17.7569995 4.51500359,17.7082706 C4.63178974,17.6617588 4.84332821,17.5200062 4.91604667,17.5421536 C4.98655949,17.566518 5.4338759,17.4712773 5.52860564,17.4247655 C5.62333538,17.3782536 6.04643487,16.9507789 6.04643487,16.9507789 L6.04643487,16.5011567 C6.04643487,16.3837686 5.97592205,15.7436933 5.97592205,15.7436933 L5.81065692,15.3649474 L5.62335795,15.2231948 L5.36334051,15.340583 L5.24655436,15.6019407 L4.9160241,16.1224392 C4.9160241,16.1224392 4.58549385,16.7138309 4.46870769,16.73815 C4.35192154,16.7603031 3.97511795,16.7603031 3.95087846,16.8333907 C3.92663897,16.904267 3.69086103,17.1877722 3.71510051,17.2830129 C3.73933436,17.3782536 3.69086103,17.6861232 3.69086103,17.7791469 C3.69086103,17.8743876 3.64458769,18.0870165 3.66662154,18.1578928 C3.69086103,18.2287691 3.45508308,18.6318794 3.45508308,18.6318794 L2.89098051,18.8688727 L2.41942462,18.4901268 L2.32467231,17.8035397 L1.78260359,17.3295531 C1.78260359,17.3295531 1.68785128,16.7869072 1.71209077,16.7138366 C1.73633026,16.6429603 2.91300872,14.2553366 2.91300872,14.2553366 L3.92444462,12.9064758 L4.60751641,12.1024552 L5.29058821,11.2032335 L5.80841744,11.2984742 L6.06622923,11.2984742 L7.24289077,11.4158624 L8.04278821,10.8953639 L8.5143441,10.516618 L9.12690308,10.4922536 L9.99731333,10.8244876 L10.7024415,10.8709995 L11.8791031,10.5874943 L12.7979697,10.184384 L14.0209441,9.09685825 L15.1976056,7.41799742 L16.0922159,5.7391366 L17.1036518,4.29722938 L17.5267287,3.51537887 C17.5267287,3.51537887 17.7625067,2.97273299 17.9277718,2.92398711 C18.0930369,2.87524124 18.4213615,2.80659897 18.4918744,2.82874639 C18.5623872,2.85311082 19.1264897,2.87525825 19.2675154,2.87525825 C19.408541,2.87525825 20.1621256,2.80438196 20.2789513,2.73350567 C20.3957769,2.66262938 21.3609,2.02253144 21.3609,2.02253144 L22.0902846,1.69029742 C22.0902846,1.69029742 22.8681256,0.910658247 22.9386385,0.910658247 C23.0091513,0.910658247 23.6459667,0.436671649 23.6459667,0.436671649 L24.2122692,0.0335613402 L25.0540231,0.000334536082 C25.0540231,0.000334536082 25.1487754,0.237327835 25.1487754,0.308204124 C25.1487754,0.379080412 25.2413221,0.711314433 25.1245359,0.757826289 C25.0077497,0.804343814 24.65298,1.04133144 24.65298,1.04133144 L24.1593903,1.37356546 L23.6878344,1.70358247 C23.6878344,1.70358247 23.2427236,2.15320464 23.2647574,2.22408093 C23.2889969,2.29495722 23.00474,2.62719124 23.00474,2.62719124 C23.00474,2.62719124 22.9827062,2.98157268 22.9827062,3.05244897 C22.9827062,3.12332526 22.6764154,3.97605206 22.6764154,3.97605206 L22.8416805,4.59176856 C22.8416805,4.59176856 23.1016979,4.99487887 23.1237318,5.08790258 C23.1457656,5.18092629 23.3352703,5.44228402 23.3352703,5.44228402 L23.4079887,5.79666546 L23.2889969,6.60068608 C23.2889969,6.60068608 23.2184841,7.28727887 23.2184841,7.35815515 C23.2184841,7.42903144 23.2889969,8.47000567 23.2889969,8.47000567 C23.2889969,8.47000567 23.4079887,8.87311598 23.4300226,9.01486856 C23.4520564,9.15662113 23.3352703,10.1023943 23.3352703,10.1023943 L22.8879538,10.6228928 L22.2775949,11.4512381 C22.2775949,11.4512381 21.9470646,12.5387639 21.9470646,12.6096402 C21.9470646,12.6805165 21.6650133,13.3671093 21.6650133,13.3671093 L21.1714236,13.62625 L20.442039,13.5310093 L20.5345856,13.8388789 L20.8651159,13.9097552 L21.1471672,14.0049959 L20.8651159,14.8333412 L20.7946031,15.3782041 C20.7946031,15.3782041 20.7946031,15.8499737 20.8166369,15.92085 C20.8408764,15.9917263 21.0039359,16.6539943 21.0039359,16.6539943 L21.0039359,17.4580149 L21.2859872,17.9076371 L21.4027733,18.3794067 C21.4027733,18.3794067 21.0964826,18.4990119 21.0259697,18.5211593 C20.9554569,18.5455237 20.3891544,18.450283 20.3891544,18.450283 C20.3891544,18.450283 20.1071031,18.4968005 20.0586241,18.5698881 C20.0123508,18.6407644 19.9638718,18.8290289 19.9638718,18.8290289 C19.9638718,18.8290289 20.1754103,18.948634 20.2701626,18.9242696 C20.3649149,18.8999052 20.6227267,18.7360052 20.6932395,18.7360052 C20.7637523,18.7360052 21.2573421,18.6651289 21.3521113,18.687282 C21.4468636,18.7116407 21.6099231,18.853399 21.6099231,18.853399 L21.6341626,19.3738974 L21.7046754,20.0826603 L21.7046754,20.8401294 L22.3635472,21.5732737 L22.6918718,21.6685144 L23.3992,21.64415 L24.2938103,21.5976381 C24.2938103,21.5976381 25.3537026,21.4071567 25.4242154,21.4315211 C25.4947282,21.4558856 26.0367744,21.478033 26.0588308,21.5732737 C26.0830703,21.6685144 26.6713897,22.1181366 26.6956462,22.1889902 C26.7199026,22.2598438 26.7903985,22.7338531 26.7903985,22.7338531 C26.7903985,22.7338531 26.9534579,23.3495696 26.9776974,23.442616 C27.0019369,23.5378567 26.9556579,24.0096263 26.9776974,24.0805026 C27.0019369,24.1513789 26.9556579,24.8136469 26.9556579,24.8136469 L26.3893554,25.4293634 C26.3893554,25.4293634 26.0147574,25.8081093 25.9905179,25.90335 C25.9662841,25.9985907 25.7305005,26.3773366 25.7305005,26.3773366 L25.3999703,26.8513232 C25.3999703,26.8513232 25.2809785,27.2765809 25.2809785,27.3718216 C25.2809785,27.4670624 25.1641923,28.1292907 25.1641923,28.1292907 L24.6926364,28.2732603 C24.6926364,28.2732603 24.3400723,28.1071433 24.3621062,28.036267 C24.3863456,27.9653907 24.2915933,27.6818856 24.3378723,27.5866448 C24.3863456,27.4914041 24.6684026,27.3252871 24.6684026,27.207899 C24.6684026,27.0905108 24.3863513,26.7826412 24.3863513,26.7826412 C24.3863513,26.7826412 23.8442826,26.8291531 23.8442826,26.9243938 C23.8442826,27.0174175 23.6547779,27.3252871 23.6547779,27.3252871 C23.6547779,27.3252871 23.5379918,27.4914041 23.5622313,27.6110093 C23.5864651,27.7283974 23.5379918,27.8945144 23.5622313,27.9653907 C23.5864651,28.036267 23.5622313,28.3441366 23.5864651,28.4393773 C23.6107046,28.534618 23.4674733,28.8181232 23.3991662,28.8424876 C23.3264477,28.8646351 22.9518497,28.8181232 22.9518497,28.8181232 C22.9518497,28.8181232 22.8328579,28.4637418 22.9033764,28.4172299 C22.9738892,28.368501 23.1149149,28.0628485 23.1149149,28.0628485 L23.1149149,27.8502196 L22.7381113,27.7549789 C22.7381113,27.7549789 22.5970856,27.7328258 22.45606,27.7549789 C22.3150344,27.7793433 21.7266754,27.9210959 21.7266754,27.9210959 L21.6561626,27.376233 L21.7971882,27.1414567 C21.7971882,27.1414567 22.0329662,26.9753397 22.1012733,26.9753397 C22.1717862,26.9753397 22.4318036,26.8092227 22.5023164,26.7383464 C22.5728292,26.6674701 22.5728292,26.5722294 22.6653759,26.4769887 C22.7601282,26.3817479 22.7138492,26.0517309 22.7138492,26.0517309 L22.2907723,25.6973495 L21.7729431,25.8856139 C21.7729431,25.8856139 21.5834385,26.1469716 21.5393708,26.2399954 C21.4908974,26.3352361 21.0678149,26.9487582 21.0678149,26.9487582 C21.0678149,26.9487582 20.8805159,27.2322634 20.8805159,27.3053567 C20.8805159,27.376233 20.40896,27.7306144 20.40896,27.7306144 L20.40896,28.2754773 L20.596259,28.8668691 C20.596259,28.8668691 20.7130451,29.2699794 20.7372846,29.3408557 C20.7615241,29.411732 20.8562764,29.7904778 20.8562764,29.8613541 L20.8562764,30.6896995 C20.8562764,30.6896995 20.7152508,31.2810912 20.7152508,31.4006737 C20.7152508,31.5180619 20.4794728,32.0629418 20.457439,32.133818 C20.4331995,32.2046943 20.1269087,32.6543165 20.1269087,32.6543165 C20.1269087,32.6543165 20.221661,33.0330624 20.1974215,33.1283031 C20.1731821,33.2235438 20.0806354,33.3652964 20.0101226,33.3652964 C19.9396097,33.3652964 19.7280713,33.340932 19.7280713,33.340932 L19.44602,32.7960691 L18.7871482,32.6543165 L18.3155923,32.6543165 L17.9630282,32.8447979 L17.1631308,33.1039387 L17.1631308,33.4361727 C17.1631308,33.4361727 17.7756897,33.5535608 17.868259,33.6022897 C17.9630113,33.6510129 18.3618487,33.6244371 18.4808179,33.673166 C18.5976041,33.7196778 18.8091426,33.8149186 18.8091426,33.8149186 L18.8333821,34.0275474 L18.6218436,34.501534 L18.6460831,34.831551 C18.6460831,34.831551 18.5976041,35.2811732 18.6218436,35.3520495 C18.6460831,35.4229258 18.5050574,35.6820665 18.5050574,35.6820665 L17.9409549,35.9655716 L17.1168574,35.9434186 L16.8105667,36.1339 L15.9864692,36.0408763 L15.7264518,35.7086423 L15.2791354,35.635549 L14.5960636,35.7307897 L14.2434995,35.7551541 L14.031961,35.8969067 L14.1024738,36.0386593 C14.1024738,36.0386593 14.4550379,36.0851711 14.5255508,36.0608124 C14.5960636,36.0386593 14.9728672,36.0120835 14.9728672,36.0120835 L15.2791579,36.0364479 L15.5391754,36.3664649 C15.5391754,36.3664649 15.8212267,36.6012412 15.8454662,36.6743345 C15.8697056,36.7452108 16.1759964,36.8869634 16.1759964,36.8869634 C16.1759964,36.8869634 16.4360138,36.862599 16.504321,36.8869634 C16.5748338,36.9091108 16.8811246,36.8869634 16.8811246,36.8869634 L16.9758769,37.1704686 L16.6695862,37.7618603 L16.2222697,37.9279773 C16.2222697,37.9279773 15.9622523,38.1406062 15.9402185,38.2114825 C15.9159846,38.2823588 15.8939451,38.5171351 15.8939451,38.5171351 L15.777159,38.6832521 L15.7066462,38.9423928 C15.7066462,38.9423928 15.1888169,38.8958809 15.1182872,38.9202397 C15.0477744,38.9423928 14.6004579,38.7784871 14.6004579,38.7784871 L14.2941672,38.6832464 C14.2941672,38.6832464 14.1289021,38.8493634 14.1531415,38.9202397 C14.177381,38.991116 14.0605949,39.2281093 14.0605949,39.2281093 C14.0605949,39.2281093 14.3889195,39.2768381 14.5321508,39.2989856 C14.6731764,39.32335 15.04998,39.2524737 15.1205097,39.2989856 C15.1910226,39.3477144 15.2372959,39.6068552 15.2615354,39.7020959 C15.2857749,39.7951196 15.1205097,40.1982299 15.1205097,40.1982299 C15.1205097,40.1982299 14.814219,40.315618 14.7679456,40.3887113 C14.7194667,40.4595876 14.6974328,40.6478521 14.6974328,40.7187284 C14.6974328,40.7896046 14.7216723,40.9800861 14.7216723,41.0487454 C14.7216723,41.1196216 14.4858944,41.2857387 14.4858944,41.2857387 C14.4858944,41.2857387 14.3691082,41.4053438 14.439621,41.4762201 C14.5101338,41.5470964 14.7701513,41.5936082 14.7701513,41.5936082 L14.9574503,41.8062371 C14.9574503,41.8062371 15.0742364,42.1606186 15.0522026,42.2558593 C15.0279631,42.348883 14.8406641,42.6346052 14.8869374,42.7054814 C14.9354164,42.7763577 15.3805272,42.9668392 15.3805272,42.9668392 C15.3805272,42.9668392 15.6405446,42.9668392 15.6625785,43.0620799 C15.6868179,43.1551036 15.5457923,43.819549 15.5457923,43.819549 L15.263741,44.3887706 L14.7216723,44.4109237 C14.7216723,44.4109237 14.5343733,44.2448067 14.439621,44.2691711 C14.3448687,44.2935356 13.9923046,44.5305289 13.9923046,44.5305289 L13.615501,44.9336392 C13.615501,44.9336392 13.5449882,45.1949969 13.5692277,45.2658732 C13.5912615,45.3367495 13.8270395,45.5737428 13.8270395,45.5737428 C13.8270395,45.5737428 14.1553641,45.9303412 14.1553641,46.0477294 C14.1553641,46.1651175 13.7080477,46.4264753 13.7080477,46.4264753 C13.7080477,46.4264753 13.4017569,46.4508397 13.3312441,46.5438634 C13.2607313,46.6391041 13.2607313,46.8273686 13.2607313,46.8273686 L13.4259964,47.01785 C13.4259964,47.01785 13.990099,47.01785 14.0606118,46.9934856 C14.1311246,46.9691211 14.5079282,46.851733 14.6026805,46.8738804 C14.6974328,46.8982448 14.9332108,47.18175 14.9794841,47.2769907 C15.0257574,47.3722314 15.3100144,47.3965959 15.5678431,47.5848603 C15.8256549,47.7731247 15.9204072,47.7044655 15.9204072,47.7044655 C15.9204072,47.7044655 16.2729713,48.2005995 16.2972108,48.2714758 C16.3214503,48.3423521 16.8392795,48.5549809 16.8392795,48.5549809 L16.9340318,48.1297232 C16.9340318,48.1297232 16.9097923,47.7509773 16.8392795,47.7753418 C16.7687667,47.7997062 16.5329887,47.680101 16.5329887,47.680101 C16.5329887,47.680101 16.3456897,47.0887093 16.2509374,47.1130907 C16.1561851,47.1374552 15.5458092,47.0909433 15.5458092,47.0909433 L15.4047836,46.6656856 L15.4510569,46.2404278 L15.8741338,46.0521634 L16.8635133,46.4309093 L17.2865903,46.9979196 C17.2865903,46.9979196 17.7559405,47.3766655 17.828659,47.4010299 C17.8991718,47.4253887 18.2297021,47.5427825 18.2297021,47.5427825 C18.2297021,47.5427825 18.4412405,48.3224216 18.46548,48.3932979 C18.4897195,48.4641742 18.7960103,48.889432 18.7960103,48.9603082 C18.7960103,49.0311845 18.7254974,49.385566 18.6549846,49.5051711 C18.5844718,49.6247763 18.3244544,49.7178 18.2319077,49.7665289 C18.1371554,49.8130407 17.6193487,49.8374052 17.6193487,49.8374052 L17.0552462,49.7421644 L16.4426872,49.221666 C16.4426872,49.221666 16.3479349,49.055549 16.1363964,49.055549 C15.9248579,49.055549 15.7133195,49.0333959 15.7133195,49.0333959 L15.5238149,49.0112485 C15.5238149,49.0112485 15.4070287,49.1308536 15.2417636,49.153001 C15.0764985,49.1751485 14.6996949,48.9403722 14.5586918,48.9625196 C14.4176662,48.986884 14.0166231,49.153001 14.0166231,49.153001 L13.664059,49.6026232 C13.664059,49.6026232 13.4987938,50.0057341 13.428281,50.0522459 C13.3577682,50.1009731 12.8862123,50.2405104 12.8862123,50.2405104 C12.8862123,50.2405104 12.6746738,50.1696341 12.5799215,50.1696341 C12.4851692,50.1696341 12.1083656,50.4066274 12.1083656,50.4066274 L11.9431005,50.5483799 L11.5905364,50.5483799 L11.2137328,50.4066274 L11.0264338,50.1231222 L10.6496303,49.8152521 L10.2970662,49.6956469 L9.70870718,49.6004062 L9.00357897,49.5295299 L8.62677538,49.1972959 C8.62677538,49.1972959 8.32048462,49.0311789 8.20369846,49.0555433 C8.08691231,49.0799077 7.92164718,49.0333959 7.80265538,49.0555433 C7.68586923,49.0799077 7.5206041,49.0555433 7.5206041,49.0555433 L6.76701949,49.1286366 L6.29766923,49.1042722 L6.04435897,48.9069072 Z" id="Fill-1"></path>
                <path d="M16.2309231,38.6207732 L16.5372138,38.3129036 L16.8192651,38.2663918 C16.8192651,38.2663918 17.0308036,38.3837799 17.0550431,38.4568732 C17.0792826,38.5277495 17.1013164,38.7647428 17.1013164,38.7647428 C17.1013164,38.7647428 17.4318467,38.9064954 17.5706667,38.8843479 C17.7116923,38.8599835 18.0642564,38.7647428 18.1347692,38.7182309 C18.2052821,38.6717191 18.7231282,38.4812376 18.817841,38.4103613 C18.9125538,38.3394851 19.4524564,37.9607392 19.4524564,37.9607392 L20.016559,37.5576289 L20.8428564,37.3649361 C20.8428564,37.3649361 21.6669538,37.342783 21.6912103,37.4136593 C21.7132441,37.4845356 22.0658082,37.5797763 22.2553128,37.6971644 C22.4426118,37.8167696 22.5858431,37.8876459 22.6321164,37.9828866 C22.6783897,38.0759103 22.8656887,38.2420273 22.8656887,38.3616325 C22.8656887,38.4790206 22.8194154,38.6451376 22.8436549,38.7403784 C22.8656887,38.8356191 22.7026292,39.0238835 22.6321164,39.0947598 C22.5593979,39.1656361 22.1142872,39.4026294 22.0900477,39.6396227 C22.0680138,39.876616 22.1142872,40.0648804 22.1142872,40.0648804 C22.1142872,40.0648804 22.3258256,40.2309974 22.4668513,40.1601211 C22.6100826,40.0892448 23.1036667,39.8987634 23.2909487,39.876616 C23.4782477,39.8544686 23.7845385,39.8278928 23.9035077,39.8057397 C24.0202938,39.7813809 24.2560718,39.5222345 24.2560718,39.5222345 C24.2560718,39.5222345 24.3045451,38.9308485 24.3045451,38.8356474 C24.3045451,38.7404067 24.2560718,38.4569015 24.2803113,38.2442557 C24.3045451,38.0316098 24.5623626,37.7702691 24.5623626,37.7702691 C24.5623626,37.7702691 24.7254221,37.7702691 24.7959349,37.8876572 C24.8664477,38.0050454 24.8906872,38.3129149 24.9149267,38.503368 C24.9369605,38.6938495 25.009679,38.9773546 25.1507046,39.0238665 C25.2895246,39.0725954 25.3622431,39.0482309 25.4085164,39.1899835 C25.4569897,39.3317361 25.4085164,39.5687351 25.3159697,39.5930995 C25.2234231,39.6152469 25.0339185,39.546582 24.9634056,39.6883402 C24.8928928,39.8300928 24.8444138,39.8300928 24.8686533,39.9474809 C24.8928872,40.0670861 24.8928872,40.1844742 25.0801918,40.2797149 C25.2696964,40.3749557 25.3644487,40.5875845 25.4107221,40.6584608 C25.4591954,40.7293371 25.8117651,41.5089763 25.8117651,41.5089763 C25.8117651,41.5089763 25.9285513,41.934234 25.9285513,42.0538392 L25.9285513,42.5034613 C25.9285513,42.6230665 25.9285513,43.568817 25.9527851,43.6396933 C25.9748246,43.7105696 26.0453318,44.3971624 26.0453318,44.3971624 L25.36226,46.6674149 L25.0780031,46.8091675 C25.0780031,46.8091675 24.725439,46.8822608 24.7034051,46.9509201 C24.6813713,47.0217964 24.4433877,47.4005423 24.4433877,47.4005423 C24.4433877,47.4005423 24.53814,47.6353186 24.6328923,47.6131711 C24.725439,47.5888067 24.8223969,47.6353186 24.8444308,47.7061948 C24.8664703,47.7770711 24.725439,47.9431881 24.7739179,48.0384289 C24.8223969,48.1314526 24.9876621,48.1801814 24.9876621,48.1801814 L25.573821,47.6840474 C25.573821,47.6840474 25.9506246,47.4226897 25.9991036,47.3518134 C26.0453769,47.2809371 26.4706595,46.3108392 26.4706595,46.3108392 C26.4706595,46.3108392 26.5632062,45.5776948 26.633719,45.4603237 C26.7042318,45.3407186 26.8937364,45.032849 26.8937364,45.032849 L27.1757877,44.6563201 L27.457839,44.8910964 C27.457839,44.8910964 27.2947795,45.5533644 27.27054,45.6485655 C27.2463005,45.7415892 27.1273087,46.3108335 27.1273087,46.4060345 C27.1273087,46.5012299 26.9157703,47.2100495 26.8937364,47.2809258 C26.8694969,47.3518021 26.3516677,48.0605649 26.3053774,48.1558227 C26.2591041,48.2510634 25.8823005,49.1724722 25.8823005,49.1724722 L25.6465226,50.1891245 C25.6465226,50.1891245 25.3424374,51.0174698 25.3424374,51.0883461 C25.3424374,51.1592224 25.0119072,51.8458152 25.0119072,51.8458152 L24.6791769,51.8413857 C24.6791769,51.8413857 24.3486467,51.3917636 24.3486467,51.3208873 C24.3486467,51.250011 24.3971256,50.609913 24.3971256,50.609913 L24.1613477,50.277679 L23.9255697,49.8280552 L24.1613477,49.8280552 C24.1613477,49.8280552 24.1833815,49.7815433 24.2781338,49.8280552 C24.3728862,49.874567 24.6549374,49.6154263 24.6549374,49.6154263 L24.7474841,49.4736737 C24.7474841,49.4736737 24.7717236,49.1192923 24.7959631,48.9996871 C24.8202026,48.882299 24.8444421,48.4082954 24.8444421,48.4082954 L24.5381513,48.1513716 L24.2538944,48.0804954 C24.2538944,48.0804954 24.0908349,48.1513716 23.9718431,48.1757361 C23.8550569,48.2001005 23.5245267,48.1535887 23.5245267,48.1535887 L23.3129882,47.584367 L23.3129882,47.2764974 L23.5245267,46.9442634 C23.5245267,46.9442634 23.4540138,46.8490227 23.3350221,46.8490227 C23.2182359,46.8490227 22.5814374,46.7781464 22.4888682,46.755999 C22.3941159,46.7316345 21.8520528,46.5655175 21.8520528,46.5655175 L21.2879503,46.3528887 L20.9353862,45.8567546 C20.9353862,45.8567546 20.6290954,45.5953969 20.5343431,45.5953969 C20.4417964,45.5953969 20.0407533,46.0206546 19.9217841,46.0206546 C19.8049979,46.0206546 19.3334251,45.7836613 19.3334251,45.6419088 C19.3334251,45.5001562 19.5934426,45.2387985 19.6859892,45.2387985 C19.7785359,45.2387985 19.7807415,44.9065644 19.7807415,44.9065644 L19.6154764,44.386066 L19.1218867,44.4104304 C19.1218867,44.4104304 18.7935621,44.4104304 18.7208436,44.5278186 C18.6503308,44.6474237 18.6503308,45.048317 18.6723646,45.1435351 L18.6966041,45.2387758 L18.1787749,45.2631402 L18.1545354,44.9309062 L17.9650308,44.0781794 C17.9650308,44.0781794 17.9650308,43.7946742 17.8945179,43.7703098 C17.8240051,43.7459454 17.4472015,43.5576809 17.4472015,43.5576809 C17.4472015,43.5576809 17.2356631,43.0371825 17.2599026,42.917583 C17.2841421,42.7979778 17.2356631,42.1357325 17.2356631,42.1357325 L16.9051328,41.4491397 C16.9051328,41.4491397 16.4115431,41.2365108 16.3630641,41.1656345 C16.3167908,41.0947582 16.197799,40.5964129 16.197799,40.5964129 L16.2683118,40.0759144 L16.197799,39.4845227 L15.962021,39.1057768 L16.0567733,38.7757598 L16.2309231,38.6207732 Z" id="Fill-2"></path>
                <path d="M36.349641,30.6741237 C36.349641,30.6741237 36.8917097,30.4393474 36.9622,30.4393474 C37.0326903,30.4393474 37.6210718,29.8014608 37.6210718,29.8014608 L38.4672256,29.0196103 C38.4672256,29.0196103 39.3618359,28.6873763 39.4345487,28.6652289 C39.5028559,28.6408644 40.2807026,28.5699881 40.2807026,28.5699881 C40.2807026,28.5699881 41.1511128,28.7117407 41.2216256,28.7361052 C41.2921385,28.7582526 41.7636944,29.1857273 41.7636944,29.1857273 C41.7636944,29.1857273 42.3520533,29.3518443 42.4710226,29.4227206 C42.5900144,29.4935969 42.8720656,29.7305902 42.8940995,29.8479784 C42.918339,29.9653665 43.0373308,30.2976005 42.918339,30.4149887 C42.7993472,30.5345938 42.3520364,31.148133 42.3520364,31.2190093 C42.3520364,31.2898856 42.1647374,31.9986485 42.1647374,31.9986485 C42.1647374,31.9986485 42.2572841,32.6143649 42.3057631,32.7561175 C42.3520364,32.8978701 42.6362933,33.1348634 42.6362933,33.276616 C42.6362933,33.4183686 42.777319,34.0806366 42.777319,34.0806366 L42.6825667,34.7185232 C42.6825667,34.7185232 42.6362933,35.0729046 42.6362933,35.1437809 C42.6362933,35.2146572 42.7530795,35.642132 42.7530795,35.642132 L43.1298831,36.0673897 C43.1298831,36.0673897 43.3899005,36.9179052 43.3899005,36.9887814 C43.3899005,37.0596577 43.4604133,37.462768 43.4383795,37.5557918 C43.4163456,37.6510325 42.8015641,38.0297784 42.7310513,38.0762902 C42.6605385,38.1228021 42.5195128,38.1958954 42.3784872,38.1958954 C42.2352559,38.1958954 42.0479569,38.1250191 42.0237174,37.9589021 C42.0016836,37.7927851 41.9774441,37.5801562 41.9532046,37.462768 C41.9311708,37.3453799 41.9311708,37.1792629 41.9311708,37.1792629 L41.7901451,37.1548985 L41.5786067,37.3210155 C41.5786067,37.3210155 41.7196323,37.3453799 41.3891021,37.3453799 C41.0585718,37.3453799 40.611261,37.3918918 40.611261,37.3918918 C40.611261,37.3918918 40.1176713,37.6288851 40.0956374,37.7950021 C40.0713979,37.9611191 39.3883092,38.8359763 39.3883092,38.8359763 C39.3883092,38.8359763 39.0335395,39.3564747 39.057779,39.427368 C39.0820185,39.4982613 39.0357395,39.7573851 39.0820128,39.9013546 C39.1304918,40.0431072 39.6703718,40.4218531 39.7408846,40.4683649 C39.8113974,40.5170938 40.6354949,40.800599 40.6354949,40.800599 C40.6354949,40.800599 41.2238538,41.2745856 41.2723103,41.3454619 C41.3207892,41.4163381 41.2943497,41.7485722 41.2943497,41.7485722 L41.4133415,42.2934351 L41.4353754,42.6721809 C41.4353754,42.6721809 41.1533241,42.8848098 41.0828113,42.9556861 C41.0122985,43.0265624 40.5407426,43.2170438 40.5407426,43.2170438 L39.6923887,43.4296727 C39.6923887,43.4296727 39.1040297,43.4784015 39.0093169,43.5957897 C38.9145646,43.7153948 38.1852195,44.3998103 38.1147067,44.4950113 C38.0441938,44.5902521 37.6431508,44.6832758 37.5726379,44.7076402 C37.5021251,44.7297876 37.2905867,44.8715402 37.3126205,44.9911454 C37.33686,45.1085335 37.4536462,45.2746505 37.5263646,45.3211624 C37.5968774,45.3676742 37.9494415,45.3676742 38.1125236,45.3455268 C38.2777887,45.3211624 38.5840795,45.2746505 38.5840795,45.2746505 L38.7493446,45.6533964 L38.55984,46.0321423 L38.2072759,46.0808711 L38.7008656,46.789634 C38.7008656,46.789634 38.7008656,47.1927443 38.6788318,47.285768 C38.6567979,47.3810088 38.9851226,47.8062665 38.9851226,47.8062665 C38.9851226,47.8062665 39.6439944,47.7819021 39.7387072,47.7353902 C39.8312538,47.6888784 39.8312538,47.0487974 39.8312538,47.0487974 C39.8312538,47.0487974 39.2891851,47.024433 39.1481821,46.9291923 C39.007179,46.8339459 38.9124041,46.6456871 38.9608831,46.5748108 C39.0071564,46.5039345 39.1944554,46.2425768 39.2892077,46.2425768 C39.38396,46.2425768 39.6902508,46.1473361 39.7607636,46.2425768 C39.8290708,46.3378175 39.8995836,46.362182 39.9700964,46.4795701 C40.0406092,46.5991753 40.4879256,46.7409278 40.5826554,46.7652923 C40.6752021,46.7874397 41.1952144,46.7652923 41.33624,46.8118041 C41.4772656,46.860533 42.2066503,47.2149144 42.2551067,47.3323026 C42.3035856,47.4496907 42.3256195,48.0432768 42.3256195,48.0432768 C42.3256195,48.0432768 42.1845938,48.4685345 42.0898415,48.4441701 C41.9972949,48.4220227 41.5036826,48.3489294 41.5036826,48.3489294 C41.5036826,48.3489294 40.7258415,48.1119361 40.5848159,48.1119361 C40.4437903,48.1119361 40.0185133,48.3954412 39.9722569,48.5371938 C39.9260005,48.6789464 39.5271462,49.1064155 39.5271462,49.1064155 C39.5271462,49.1064155 38.9850774,49.3655562 38.9145872,49.3655562 C38.84628,49.3655562 38.3284282,49.2725325 38.3284282,49.2725325 C38.3284282,49.2725325 38.1653687,48.8937866 38.0926503,48.9646629 C38.0221374,49.0355392 37.9736585,49.2968969 37.9736585,49.2968969 C37.9736585,49.2968969 38.3504621,49.5338902 38.398941,49.6047665 C38.4452144,49.6756428 38.5620005,49.9591474 38.5620005,50.0787525 C38.5620005,50.1961407 37.8789287,50.9070973 37.8789287,50.9070973 C37.8789287,50.9070973 37.5263646,51.2149669 37.5263646,51.2858432 C37.5263646,51.3567195 37.385339,51.6645891 37.3610995,51.7598298 C37.33906,51.8550705 37.0790482,52.3977164 37.0790482,52.3977164 L36.7727574,53.3678143 C36.7727574,53.3678143 36.9159887,54.0787886 36.9380226,54.1474535 C36.9600564,54.2183298 36.9600564,54.6214401 36.9600564,54.6214401 L36.6074923,54.6701678 L36.3717144,54.3866627 L36.2549282,53.9835524 L35.9486374,53.6048065 C35.9486374,53.6048065 35.8538851,53.2747895 35.875919,53.2016962 C35.9001585,53.1308199 35.9949108,52.4929333 35.9949108,52.4929333 L36.1822097,52.1850637 L36.0411841,51.759806 L35.7833723,51.7376574 L35.3360559,51.87941 L35.3118164,52.2337914 L35.5718338,52.4242729 C35.5718338,52.4242729 35.6423467,52.541661 35.6423467,52.6125373 C35.6423467,52.6834136 35.5498,52.9669188 35.5498,52.9669188 L35.3845349,53.1330358 L34.912979,53.2039121 L34.4678682,53.022293 L33.9963123,52.9757806 L33.3616969,52.9757806 L32.7733379,53.1175331 C32.7733379,53.1175331 32.3722949,53.2592857 32.3260215,53.3788909 C32.2775426,53.496279 32.2334749,53.7820012 32.2334749,53.7820012 L32.0219364,53.9016063 L31.761919,53.664613 L31.1978164,53.332379 L30.8210128,53.0488739 L30.563201,52.6236161 L30.0211323,52.4109873 L29.1022656,51.9370007 L28.185599,51.5582548 C28.185599,51.5582548 27.7140431,51.2503852 27.6898036,51.1795089 C27.6655641,51.1086326 27.3857185,50.6590105 27.3857185,50.6590105 C27.3857185,50.6590105 27.4077523,50.3976527 27.5025046,50.3976527 C27.5972569,50.3976527 27.7625221,50.3511403 27.8572744,50.4220166 C27.949821,50.4928929 28.2561118,50.610281 28.2561118,50.610281 L28.5403687,50.5394047 L28.6593605,50.4906776 L28.82242,50.2780487 L28.82242,50.1362961 L28.635121,50.114147 L28.4918897,49.7819119 L28.3288303,49.4984067 L27.9035477,49.3566541 L27.9035477,48.9801253 C27.9035477,48.9801253 28.2561118,48.7187675 28.3508641,48.7187675 C28.4434108,48.7187675 28.7519072,48.4839912 28.7519072,48.4839912 L28.8929328,48.2713624 C28.8929328,48.2713624 29.2454969,48.0808809 29.3402492,48.0808809 L29.9286082,48.0808809 L30.58748,48.4352624 C30.58748,48.4352624 31.1031036,48.8848845 31.175839,49.0266541 C31.2463518,49.1684067 31.7399415,49.4762763 31.7399415,49.4762763 L32.0704718,49.8306577 L32.6367744,50.1628929 L32.8945862,50.1872568 L33.1083303,50.0211397 L33.1303641,49.8793866 C33.1303641,49.8793866 33.3419026,49.8328747 33.4608944,49.8572392 C33.5798862,49.8793866 33.7914246,49.7154866 33.7914246,49.7154866 L33.8861769,49.2680814 C33.8861769,49.2680814 33.8619431,49.0310881 33.9324559,49.0310881 C34.0029687,49.0310881 34.3797723,49.243717 34.4040118,49.3168103 C34.4282456,49.3876866 34.6640292,49.4807103 34.6640292,49.4807103 L34.8535338,49.1484763 L34.8292944,48.745366 L34.5494487,48.5083727 L34.6662349,48.1539912 L35.0430385,48.1539912 L35.3735687,48.3887675 L35.5366282,48.2226505 C35.5366282,48.2226505 35.5366282,47.9147809 35.6313805,47.9391454 C35.7239272,47.9635098 36.3849651,48.1761387 36.4797344,48.2713794 C36.572281,48.3666201 36.8322985,48.6257608 36.9512903,48.6501253 C37.0702821,48.6744897 37.3523333,48.743149 37.3523333,48.743149 L37.8459231,48.743149 L37.7754103,48.2935268 C37.7754103,48.2935268 37.6343846,48.1030454 37.5638718,48.0808979 C37.493359,48.0565335 37.1165554,47.7973928 37.1165554,47.7973928 L36.9050169,47.7021521 L36.0566631,47.6312758 C36.0566631,47.6312758 35.5145944,47.0155593 35.4441041,46.9225129 C35.3735913,46.8272722 35.1135738,46.4728907 35.0893344,46.4020144 C35.0672949,46.3311381 34.5957446,45.1018598 34.5737108,45.0287722 C34.5516769,44.9578959 34.26742,44.249133 34.26742,44.249133 C34.26742,44.249133 33.2317841,43.8703871 33.1612713,43.8947515 C33.0929641,43.916899 32.6456477,43.752999 32.5266559,43.7308515 C32.4076641,43.7064871 31.0679431,43.6112464 30.9269174,43.586882 C30.7836862,43.5647345 30.5258744,43.4451294 30.4090882,43.3277412 C30.2900964,43.2081361 30.1270369,42.8537546 30.1270369,42.8537546 L29.7017544,42.3576206 L29.3712241,42.3088918 L28.7828651,41.5270412 L29.0891559,41.0309072 L29.490199,40.7717665 L29.5827456,40.1803747 L29.5739287,39.425117 L29.2213646,38.9754948 L29.03186,38.3841031 L29.080339,37.8636046 L28.8908344,37.2013366 L28.4655518,36.7052026 L27.9014492,36.0651046 L27.4298933,35.427218 L26.9825769,35.094984 L26.7952779,34.8823552 L27.1236026,34.6232144 L27.6899051,34.6940907 L28.7497974,35.0019603 L29.2433872,35.0506892 L30.3032795,34.9775959 L31.2221462,34.2201268 C31.2221462,34.2201268 31.292659,33.6752639 31.292659,33.6044103 C31.292659,33.5335567 31.3146928,33.2256644 31.3874113,33.2500289 C31.4579241,33.2721763 31.7399754,33.2987577 31.881001,33.2987577 C32.0242323,33.2987577 32.3283174,33.2500289 32.4230697,33.1082763 C32.5178221,32.9665237 32.6125744,32.7516778 32.6125744,32.6342897 L32.6125744,32.1137912 L32.3988303,31.7815572 C32.3988303,31.7815572 31.7399585,31.4736876 31.6694456,31.4736876 C31.5989328,31.4736876 31.2221292,31.4028113 31.1516164,31.3806639 C31.0811036,31.3562995 30.6337872,31.1436706 30.6337872,31.1436706 L30.1886764,30.6475366 L30.1181636,30.3861789 L30.2812231,30.17355 L30.6580267,30.2909381 C30.6580267,30.2909381 30.8938046,30.5279314 30.9400779,30.6231722 C30.9885569,30.7184129 31.1031374,30.8845299 31.2221292,30.9554062 C31.341121,31.0262825 31.7884318,31.1215232 31.7884318,31.1215232 L32.5420164,31.2389113 L32.91882,31.2389113 C32.91882,31.2389113 33.2956236,31.1680351 33.3418969,31.2389113 C33.3903759,31.3097876 33.5314015,31.3562995 33.5776749,31.4293928 C33.6261538,31.5002691 33.8112472,31.5467809 33.8112472,31.5467809 C33.8112472,31.5467809 34.0227856,31.5711454 34.1417774,31.4980521 C34.2607692,31.4271758 34.5428205,31.2145469 34.5428205,31.2145469 L35.0584441,31.1436706 L35.2699826,31.3562995 C35.2699826,31.3562995 35.1069231,31.7106809 35.0364103,31.7815572 C34.9658974,31.8546505 34.8953846,32.0672794 34.9174185,32.1381557 C34.9394523,32.209032 34.8469056,32.3995134 34.8469056,32.3995134 L34.3995892,32.209032 L34.1175379,32.2555438 C34.1175379,32.2555438 34.069059,32.375149 34.0955041,32.4681727 C34.1175379,32.5634134 34.3775554,32.8004067 34.4260344,32.8934304 C34.4723077,32.9886711 34.6596067,33.367417 34.6596067,33.367417 L34.70808,33.7461629 L34.4480626,34.1005443 C34.4480626,34.1005443 34.1175323,33.9587918 34.0470195,33.9831562 C33.9765067,34.0053036 33.3881477,33.9587918 33.4124041,34.1005443 C33.4344436,34.2422969 33.4344436,34.4549258 33.5049508,34.4792902 C33.5754636,34.5014376 33.8090359,34.4792902 33.9280277,34.4792902 L34.5868995,34.4792902 C34.5868995,34.4792902 34.8931903,34.7406479 34.9174297,34.8336716 C34.9394692,34.9266954 35.1069344,35.236782 35.1069344,35.236782 L35.6952933,35.4494108 C35.6952933,35.4494108 35.7900456,35.1659057 35.8142851,35.0950294 C35.8363246,35.0241531 35.8825923,34.4571428 35.9068318,34.3862665 C35.9288713,34.3153902 36.0698913,33.9122799 36.0698913,33.9122799 L36.4951738,33.7217985 L36.7772251,33.4139289 C36.7772251,33.4139289 36.7287518,32.9886711 36.6846785,32.9177948 C36.6362051,32.8469186 36.2131226,32.372932 36.2373621,32.209032 C36.2616015,32.0429149 36.5678923,31.5224392 36.5678923,31.5224392 C36.5678923,31.5224392 36.7089179,31.4737103 36.8036703,31.4980747 C36.8962169,31.5224392 37.1562344,31.9011851 37.1562344,31.9011851 L37.1562344,32.4681954 L37.0857215,33.0130582 L37.3677728,33.3674397 C37.3677728,33.3674397 37.4603195,33.7949144 37.4603195,33.8879381 C37.4603195,33.9831789 37.6035508,34.5745309 37.6035508,34.6454072 C37.6035508,34.7162835 37.4603195,35.1659057 37.4603195,35.1659057 L37.0857215,35.2611464 L37.0152087,35.8060093 C37.0152087,35.8060093 37.1077554,36.1138789 37.1782682,36.1138789 C37.248781,36.1138789 37.6498241,36.1138789 37.6718579,36.1847552 C37.6960974,36.2556314 37.7445764,36.4926247 37.7445764,36.4926247 L38.1918928,36.4926247 L38.1434195,35.6398979 L38.2844451,35.0020113 L38.2139323,34.5767536 L38.0001882,33.772733 L37.9539149,33.2057227 C37.9539149,33.2057227 37.9296754,32.6143309 37.9054359,32.5434546 C37.8834021,32.4725784 37.5749056,31.6198515 37.5749056,31.6198515 L37.2708205,31.1724464 L36.5634923,31.1015701 C36.5634923,31.1015701 36.1624492,31.2433227 35.9993897,31.1968108 C35.8341246,31.148082 35.7393723,30.8645768 35.7393723,30.8645768 L35.9751503,30.6275835 L36.349641,30.6741237 Z" id="Fill-3"></path>
            </g>
            <rect id="Rectangle-11" fill-opacity="0" fill="#FFFFFF" x="0" y="0" width="70" height="60"></rect>
        </g>
    </g>
</svg>