<?xml version="1.0" encoding="UTF-8"?>
<svg width="70px" height="60px" viewBox="0 0 70 60" version="1.1" xmlns="http://www.w3.org/2000/svg" xmlns:xlink="http://www.w3.org/1999/xlink">
    <!-- Generator: Sketch 48.2 (47327) - http://www.bohemiancoding.com/sketch -->
    <title>Artboard</title>
    <desc>Created with Sketch.</desc>
    <defs></defs>
    <g id="Page-1" stroke="none" stroke-width="1" fill="none" fill-rule="evenodd">
        <g id="Artboard">
            <g id="Group-2" transform="translate(8.000000, 14.000000)">
                <g id="Group-3">
                    <ellipse id="Oval-3" fill="#DEDEDE" cx="5" cy="31" rx="5" ry="1"></ellipse>
                    <ellipse id="Oval-3-Copy" fill="#DEDEDE" cx="49" cy="31" rx="5" ry="1"></ellipse>
                    <path d="M5,31 L5,6 C5,2.6862915 7.46243388,0 10.5,0 L43.5,0 C46.5375661,0 49,2.6862915 49,6 L49,31" id="Rectangle-8" stroke="#0097A7" stroke-width="2"></path>
                    <path d="M11,2 L43,2 C45.209139,2 47,3.790861 47,6 L47,18 L7,18 L7,6 C7,3.790861 8.790861,2 11,2 Z M16,9 L16,11 L38,11 L38,9 L16,9 Z" id="Combined-Shape" fill="#0097A7"></path>
                    <rect id="Rectangle-9" fill="#0097A7" x="6" y="19" width="43" height="2"></rect>
                </g>
            </g>
            <rect id="Rectangle-11" fill-opacity="0" fill="#FFFFFF" x="0" y="0" width="70" height="60"></rect>
        </g>
    </g>
</svg>