<?xml version="1.0" encoding="UTF-8"?>
<svg width="167px" height="51px" viewBox="0 0 167 51" version="1.1" xmlns="http://www.w3.org/2000/svg" xmlns:xlink="http://www.w3.org/1999/xlink">
    <!-- Generator: Sketch 48.2 (47327) - http://www.bohemiancoding.com/sketch -->
    <title>Group 10</title>
    <desc>Created with Sketch.</desc>
    <defs></defs>
    <g id="Desktop-HD-Copy-8" stroke="none" stroke-width="1" fill="none" fill-rule="evenodd" transform="translate(-1031.000000, -984.000000)">
        <g id="footer" transform="translate(0.000000, 905.000000)" fill="#FFFFFF">
            <g id="Group-10" transform="translate(1030.000000, 79.000000)">
                <path d="M35,27 L35,0 L42.9005587,0 C45.2646137,0 47.3622216,0.531588091 49.1934456,1.59478022 C51.0246695,2.65797235 52.4424688,4.16619902 53.4468859,6.11950549 C54.451303,8.07281196 54.9535041,10.310427 54.9535041,12.8324176 L54.9535041,14.1861264 C54.9535041,16.7452051 54.4482408,18.9951826 53.4376992,20.9361264 C52.4271576,22.8770701 50.9879229,24.3729343 49.119952,25.4237637 C47.2519811,26.4745932 45.1115023,27 42.6984514,27 L35,27 Z M39.6484683,3.78296703 L39.6484683,23.2541209 L42.680078,23.2541209 C45.1176269,23.2541209 46.988632,22.4845544 48.2931493,20.9453984 C49.5976667,19.4062423 50.2621644,17.196443 50.2866624,14.3159341 L50.2866624,12.8138736 C50.2866624,9.88391392 49.6558489,7.64629894 48.394203,6.10096154 C47.1325571,4.55562414 45.3013606,3.78296703 42.9005587,3.78296703 L39.6484683,3.78296703 Z M72.2906371,20.7135989 L61.9280438,20.7135989 L59.7599835,27 L54.9277813,27 L65.0331471,0 L69.2039072,0 L79.3276463,27 L74.4770708,27 L72.2906371,20.7135989 Z M63.2325547,16.9306319 L70.9861262,16.9306319 L67.1093404,5.73008242 L63.2325547,16.9306319 Z M100.743672,20.3241758 L104.859312,0 L109.471034,0 L103.297574,27 L98.851213,27 L93.7617833,7.28777473 L88.5621133,27 L84.097379,27 L77.9239192,0 L82.5356406,0 L86.6880273,20.2870879 L91.7958304,0 L95.6909895,0 L100.743672,20.3241758 Z M125.962991,20.7135989 L115.600397,20.7135989 L113.432337,27 L108.600135,27 L118.705501,0 L122.876261,0 L133,27 L128.149424,27 L125.962991,20.7135989 Z M116.904908,16.9306319 L124.65848,16.9306319 L120.781694,5.73008242 L116.904908,16.9306319 Z" id="DAWA"></path>
                <path d="M1.15527344,50 L1.15527344,40.046875 L3.96484375,40.046875 C4.8307335,40.046875 5.59635084,40.2382793 6.26171875,40.6210938 C6.92708666,41.0039082 7.44091616,41.5484991 7.80322266,42.2548828 C8.16552916,42.9612666 8.34895831,43.7724564 8.35351562,44.6884766 L8.35351562,45.3242188 C8.35351562,46.2630255 8.17236509,47.0856084 7.81005859,47.7919922 C7.44775209,48.4983759 6.93050466,49.0406882 6.25830078,49.4189453 C5.5860969,49.7972024 4.80338988,49.9908854 3.91015625,50 L1.15527344,50 Z M2.46777344,41.1269531 L2.46777344,48.9267578 L3.84863281,48.9267578 C4.86035662,48.9267578 5.64762088,48.6123078 6.21044922,47.9833984 C6.77327755,47.354489 7.0546875,46.4589902 7.0546875,45.296875 L7.0546875,44.7158203 C7.0546875,43.5856063 6.78922792,42.7071971 6.25830078,42.0805664 C5.72737365,41.4539357 4.97428873,41.1360678 3.99902344,41.1269531 L2.46777344,41.1269531 Z M14.0041016,50 C13.9311845,49.8541659 13.8719403,49.5944029 13.8263672,49.2207031 C13.2384736,49.8313833 12.5366577,50.1367188 11.7208984,50.1367188 C10.9917281,50.1367188 10.3935896,49.9305034 9.92646486,49.5180664 C9.45934012,49.1056294 9.22578126,48.5826855 9.22578126,47.9492188 C9.22578126,47.1790326 9.51858432,46.5808941 10.1041992,46.1547852 C10.6898141,45.7286763 11.5135364,45.515625 12.5753906,45.515625 L13.8058594,45.515625 L13.8058594,44.9345703 C13.8058594,44.4925108 13.6736993,44.1404635 13.409375,43.878418 C13.1450508,43.6163724 12.7554062,43.4853516 12.2404297,43.4853516 C11.7892556,43.4853516 11.4110041,43.5992827 11.1056641,43.8271484 C10.800324,44.0550142 10.6476563,44.3307275 10.6476563,44.6542969 L9.37617189,44.6542969 C9.37617189,44.2851544 9.50719271,43.9285499 9.76923829,43.5844727 C10.0312839,43.2403954 10.3867491,42.9681 10.8356445,42.7675781 C11.28454,42.5670563 11.7778619,42.4667969 12.315625,42.4667969 C13.1678428,42.4667969 13.8354794,42.6798481 14.3185547,43.105957 C14.80163,43.5320659 15.0522786,44.1188114 15.0705078,44.8662109 L15.0705078,48.2705078 C15.0705078,48.9495477 15.1570955,49.4895813 15.3302734,49.890625 L15.3302734,50 L14.0041016,50 Z M11.9054688,49.0361328 C12.3019551,49.0361328 12.6779279,48.9335948 13.0333984,48.7285156 C13.388869,48.5234365 13.6463534,48.2568376 13.8058594,47.9287109 L13.8058594,46.4111328 L12.8146484,46.4111328 C11.2651615,46.4111328 10.4904297,46.8645788 10.4904297,47.7714844 C10.4904297,48.1679707 10.6225898,48.4778635 10.8869141,48.7011719 C11.1512383,48.9244803 11.4907531,49.0361328 11.9054688,49.0361328 Z M17.5492188,42.6035156 L17.5902344,43.5332031 C18.1553414,42.8222621 18.8936153,42.4667969 19.8050781,42.4667969 C21.368237,42.4667969 22.1566406,43.348624 22.1703125,45.1123047 L22.1703125,50 L20.9056641,50 L20.9056641,45.1054688 C20.9011068,44.572263 20.7792004,44.1780612 20.5399414,43.9228516 C20.3006824,43.667642 19.9281276,43.5400391 19.4222656,43.5400391 C19.0121073,43.5400391 18.6520849,43.649413 18.3421875,43.8681641 C18.0322901,44.0869152 17.7907561,44.3740217 17.6175781,44.7294922 L17.6175781,50 L16.3529297,50 L16.3529297,42.6035156 L17.5492188,42.6035156 Z M24.5669922,42.6035156 L24.6011719,43.4238281 C25.1434923,42.7858041 25.8749303,42.4667969 26.7955078,42.4667969 C27.8300182,42.4667969 28.5341128,42.8632773 28.9078125,43.65625 C29.1539075,43.3007795 29.4740541,43.013673 29.8682618,42.7949219 C30.2624695,42.5761708 30.7284479,42.4667969 31.266211,42.4667969 C32.8886149,42.4667969 33.7134765,43.3258378 33.7408203,45.0439453 L33.7408203,50 L32.4761719,50 L32.4761719,45.1191406 C32.4761719,44.5904921 32.3554049,44.195151 32.1138672,43.9331055 C31.8723296,43.6710599 31.4667347,43.5400391 30.8970703,43.5400391 C30.427667,43.5400391 30.0380224,43.6801744 29.728125,43.9604492 C29.4182277,44.2407241 29.2382164,44.6178362 29.188086,45.0917969 L29.188086,50 L27.9166016,50 L27.9166016,45.1533203 C27.9166016,44.0777941 27.3902397,43.5400391 26.3375,43.5400391 C25.5080688,43.5400391 24.9406917,43.8932256 24.6353516,44.5996094 L24.6353516,50 L23.3707032,50 L23.3707032,42.6035156 L24.5669922,42.6035156 Z M39.5144532,50 C39.4415361,49.8541659 39.3822919,49.5944029 39.3367188,49.2207031 C38.7488252,49.8313833 38.0470093,50.1367188 37.23125,50.1367188 C36.5020797,50.1367188 35.9039412,49.9305034 35.4368165,49.5180664 C34.9696917,49.1056294 34.7361329,48.5826855 34.7361329,47.9492188 C34.7361329,47.1790326 35.0289359,46.5808941 35.6145508,46.1547852 C36.2001657,45.7286763 37.023888,45.515625 38.0857422,45.515625 L39.316211,45.515625 L39.316211,44.9345703 C39.316211,44.4925108 39.1840508,44.1404635 38.9197266,43.878418 C38.6554024,43.6163724 38.2657578,43.4853516 37.7507813,43.4853516 C37.2996072,43.4853516 36.9213557,43.5992827 36.6160157,43.8271484 C36.3106756,44.0550142 36.1580079,44.3307275 36.1580079,44.6542969 L34.8865235,44.6542969 C34.8865235,44.2851544 35.0175443,43.9285499 35.2795899,43.5844727 C35.5416355,43.2403954 35.8971007,42.9681 36.3459961,42.7675781 C36.7948916,42.5670563 37.2882135,42.4667969 37.8259766,42.4667969 C38.6781944,42.4667969 39.345831,42.6798481 39.8289063,43.105957 C40.3119816,43.5320659 40.5626302,44.1188114 40.5808594,44.8662109 L40.5808594,48.2705078 C40.5808594,48.9495477 40.6674471,49.4895813 40.840625,49.890625 L40.840625,50 L39.5144532,50 Z M37.4158204,49.0361328 C37.8123067,49.0361328 38.1882795,48.9335948 38.54375,48.7285156 C38.8992206,48.5234365 39.156705,48.2568376 39.316211,47.9287109 L39.316211,46.4111328 L38.325,46.4111328 C36.7755131,46.4111328 36.0007813,46.8645788 36.0007813,47.7714844 C36.0007813,48.1679707 36.1329414,48.4778635 36.3972657,48.7011719 C36.6615899,48.9244803 37.0011047,49.0361328 37.4158204,49.0361328 Z M45.4384766,43.7382812 C45.2470694,43.70638 45.0397147,43.6904297 44.8164063,43.6904297 C43.9869751,43.6904297 43.4241552,44.0436163 43.1279297,44.75 L43.1279297,50 L41.8632813,50 L41.8632813,42.6035156 L43.0937501,42.6035156 L43.1142579,43.4580078 C43.5289735,42.7971972 44.1168582,42.4667969 44.8779297,42.4667969 C45.1240247,42.4667969 45.3108718,42.4986976 45.4384766,42.5625 L45.4384766,43.7382812 Z M47.9650391,46.5751953 L47.1720704,47.4023438 L47.1720704,50 L45.9074219,50 L45.9074219,39.5 L47.1720704,39.5 L47.1720704,45.8505859 L47.8488282,45.0371094 L50.1525391,42.6035156 L51.6906251,42.6035156 L48.8126954,45.6933594 L52.025586,50 L50.5421876,50 L47.9650391,46.5751953 Z M56.6029298,48.0380859 C56.6029298,47.6962874 56.4741876,47.4308278 56.2166993,47.2416992 C55.959211,47.0525707 55.5103223,46.8896491 54.8700196,46.7529297 C54.2297169,46.6162103 53.721584,46.4521494 53.3456056,46.2607422 C52.9696271,46.069335 52.6916351,45.8414727 52.5116212,45.5771484 C52.3316073,45.3128242 52.2416016,44.9983742 52.2416016,44.6337891 C52.2416016,44.0276662 52.4979467,43.5149761 53.0106446,43.0957031 C53.5233425,42.6764302 54.1784466,42.4667969 54.9759766,42.4667969 C55.8145225,42.4667969 56.4946915,42.6832661 57.016504,43.1162109 C57.5383165,43.5491558 57.7992188,44.1028612 57.7992188,44.7773438 L56.5277345,44.7773438 C56.5277345,44.4309879 56.3807633,44.1324882 56.0868165,43.8818359 C55.7928697,43.6311836 55.4225935,43.5058594 54.9759766,43.5058594 C54.5156879,43.5058594 54.1556654,43.6061188 53.8958985,43.8066406 C53.6361316,44.0071625 53.5062501,44.2692041 53.5062501,44.5927734 C53.5062501,44.8981135 53.6270171,45.1282544 53.8685548,45.2832031 C54.1100924,45.4381518 54.5464488,45.5862623 55.1776368,45.7275391 C55.8088249,45.8688158 56.3203757,46.0374339 56.7123048,46.2333984 C57.1042338,46.429363 57.3947583,46.6652004 57.5838868,46.940918 C57.7730154,47.2166355 57.8675782,47.5527324 57.8675782,47.9492188 C57.8675782,48.6100293 57.6032579,49.1398092 57.0746095,49.5385742 C56.545961,49.9373392 55.8600954,50.1367188 55.0169923,50.1367188 C54.4245414,50.1367188 53.9004581,50.0319021 53.4447266,49.8222656 C52.9889952,49.6126292 52.6323907,49.3198261 52.3749024,48.9438477 C52.1174142,48.5678692 51.988672,48.161135 51.988672,47.7236328 L53.2533204,47.7236328 C53.276107,48.1474631 53.4458644,48.48356 53.7625977,48.7319336 C54.0793311,48.9803072 54.4974584,49.1044922 55.0169923,49.1044922 C55.4955103,49.1044922 55.8794583,49.0076507 56.1688477,48.8139648 C56.4582372,48.620279 56.6029298,48.3616553 56.6029298,48.0380859 Z M67.2751954,47.4023438 L63.1052735,47.4023438 L62.1687501,50 L60.8152345,50 L64.6160157,40.046875 L65.7644532,40.046875 L69.5720704,50 L68.2253907,50 L67.2751954,47.4023438 Z M63.5017579,46.3222656 L66.885547,46.3222656 L65.1902345,41.6669922 L63.5017579,46.3222656 Z M69.7060548,46.2402344 C69.7060548,45.1054631 69.9749323,44.1928745 70.5126954,43.5024414 C71.0504585,42.8120083 71.7545531,42.4667969 72.6250001,42.4667969 C73.4908899,42.4667969 74.1767554,42.7630179 74.6826173,43.3554688 L74.6826173,39.5 L75.9472657,39.5 L75.9472657,50 L74.7851564,50 L74.7236329,49.2070312 C74.217771,49.826826 73.5136765,50.1367188 72.6113282,50.1367188 C71.7545531,50.1367188 71.0561552,49.7858108 70.5161134,49.0839844 C69.9760716,48.3821579 69.7060548,47.4661515 69.7060548,46.3359375 L69.7060548,46.2402344 Z M70.9707032,46.3837891 C70.9707032,47.2223349 71.1438786,47.8785784 71.4902345,48.3525391 C71.8365904,48.8264998 72.3151012,49.0634766 72.9257814,49.0634766 C73.7278687,49.0634766 74.3134748,48.7034541 74.6826173,47.9833984 L74.6826173,44.5859375 C74.3043602,43.8886684 73.7233113,43.5400391 72.9394532,43.5400391 C72.3196585,43.5400391 71.8365904,43.7792945 71.4902345,44.2578125 C71.1438786,44.7363305 70.9707032,45.4449823 70.9707032,46.3837891 Z M80.7843751,43.7382812 C80.5929679,43.70638 80.3856132,43.6904297 80.1623048,43.6904297 C79.3328736,43.6904297 78.7700537,44.0436163 78.4738283,44.75 L78.4738283,50 L77.2091798,50 L77.2091798,42.6035156 L78.4396486,42.6035156 L78.4601564,43.4580078 C78.874872,42.7971972 79.4627567,42.4667969 80.2238283,42.4667969 C80.4699232,42.4667969 80.6567703,42.4986976 80.7843751,42.5625 L80.7843751,43.7382812 Z M84.1859376,50.1367188 C83.1833285,50.1367188 82.3675814,49.8074577 81.738672,49.1489258 C81.1097626,48.4903938 80.7953126,47.609706 80.7953126,46.5068359 L80.7953126,46.2744141 C80.7953126,45.5406864 80.935448,44.8855823 81.2157228,44.309082 C81.4959976,43.7325818 81.8879208,43.2814144 82.391504,42.9555664 C82.8950873,42.6297184 83.4408175,42.4667969 84.0287111,42.4667969 C84.9903044,42.4667969 85.7376928,42.7835255 86.2708986,43.4169922 C86.8041044,44.0504589 87.0707033,44.9573509 87.0707033,46.1376953 L87.0707033,46.6640625 L82.0599611,46.6640625 C82.0781903,47.3932328 82.2912416,47.9822569 82.6991212,48.4311523 C83.1070009,48.8800478 83.6253876,49.1044922 84.254297,49.1044922 C84.7009138,49.1044922 85.0791653,49.0133473 85.3890626,48.8310547 C85.69896,48.6487621 85.9701162,48.4072281 86.2025392,48.1064453 L86.9750001,48.7080078 C86.3552054,49.6604865 85.4255272,50.1367188 84.1859376,50.1367188 Z M84.0287111,43.5058594 C83.5182919,43.5058594 83.0899107,43.6915672 82.7435548,44.0629883 C82.3971989,44.4344094 82.1830084,44.9550748 82.1009767,45.625 L85.8060548,45.625 L85.8060548,45.5292969 C85.7695963,44.8867155 85.596421,44.3888364 85.2865236,44.0356445 C84.9766262,43.6824527 84.5573596,43.5058594 84.0287111,43.5058594 Z M92.1402345,48.0380859 C92.1402345,47.6962874 92.0114923,47.4308278 91.7540041,47.2416992 C91.4965158,47.0525707 91.0476271,46.8896491 90.4073244,46.7529297 C89.7670217,46.6162103 89.2588888,46.4521494 88.8829103,46.2607422 C88.5069319,46.069335 88.2289399,45.8414727 88.0489259,45.5771484 C87.868912,45.3128242 87.7789064,44.9983742 87.7789064,44.6337891 C87.7789064,44.0276662 88.0352515,43.5149761 88.5479494,43.0957031 C89.0606472,42.6764302 89.7157514,42.4667969 90.5132814,42.4667969 C91.3518273,42.4667969 92.0319962,42.6832661 92.5538087,43.1162109 C93.0756213,43.5491558 93.3365236,44.1028612 93.3365236,44.7773438 L92.0650392,44.7773438 C92.0650392,44.4309879 91.918068,44.1324882 91.6241212,43.8818359 C91.3301745,43.6311836 90.9598982,43.5058594 90.5132814,43.5058594 C90.0529926,43.5058594 89.6929702,43.6061188 89.4332033,43.8066406 C89.1734364,44.0071625 89.0435548,44.2692041 89.0435548,44.5927734 C89.0435548,44.8981135 89.1643219,45.1282544 89.4058595,45.2832031 C89.6473972,45.4381518 90.0837535,45.5862623 90.7149416,45.7275391 C91.3461296,45.8688158 91.8576805,46.0374339 92.2496095,46.2333984 C92.6415386,46.429363 92.932063,46.6652004 93.1211916,46.940918 C93.3103201,47.2166355 93.404883,47.5527324 93.404883,47.9492188 C93.404883,48.6100293 93.1405627,49.1398092 92.6119142,49.5385742 C92.0832657,49.9373392 91.3974002,50.1367188 90.554297,50.1367188 C89.9618462,50.1367188 89.4377629,50.0319021 88.9820314,49.8222656 C88.5263,49.6126292 88.1696955,49.3198261 87.9122072,48.9438477 C87.6547189,48.5678692 87.5259767,48.161135 87.5259767,47.7236328 L88.7906252,47.7236328 C88.8134117,48.1474631 88.9831691,48.48356 89.2999025,48.7319336 C89.6166359,48.9803072 90.0347632,49.1044922 90.554297,49.1044922 C91.032815,49.1044922 91.416763,49.0076507 91.7061525,48.8139648 C91.995542,48.620279 92.1402345,48.3616553 92.1402345,48.0380859 Z M98.6589845,48.0380859 C98.6589845,47.6962874 98.5302423,47.4308278 98.2727541,47.2416992 C98.0152658,47.0525707 97.5663771,46.8896491 96.9260744,46.7529297 C96.2857717,46.6162103 95.7776388,46.4521494 95.4016603,46.2607422 C95.0256819,46.069335 94.7476899,45.8414727 94.5676759,45.5771484 C94.387662,45.3128242 94.2976564,44.9983742 94.2976564,44.6337891 C94.2976564,44.0276662 94.5540015,43.5149761 95.0666994,43.0957031 C95.5793973,42.6764302 96.2345014,42.4667969 97.0320314,42.4667969 C97.8705773,42.4667969 98.5507463,42.6832661 99.0725588,43.1162109 C99.5943713,43.5491558 99.8552736,44.1028612 99.8552736,44.7773438 L98.5837892,44.7773438 C98.5837892,44.4309879 98.436818,44.1324882 98.1428713,43.8818359 C97.8489245,43.6311836 97.4786482,43.5058594 97.0320314,43.5058594 C96.5717427,43.5058594 96.2117202,43.6061188 95.9519533,43.8066406 C95.6921864,44.0071625 95.5623049,44.2692041 95.5623049,44.5927734 C95.5623049,44.8981135 95.6830719,45.1282544 95.9246095,45.2832031 C96.1661472,45.4381518 96.6025035,45.5862623 97.2336916,45.7275391 C97.8648796,45.8688158 98.3764305,46.0374339 98.7683595,46.2333984 C99.1602886,46.429363 99.450813,46.6652004 99.6399416,46.940918 C99.8290701,47.2166355 99.923633,47.5527324 99.923633,47.9492188 C99.923633,48.6100293 99.6593127,49.1398092 99.1306642,49.5385742 C98.6020158,49.9373392 97.9161502,50.1367188 97.073047,50.1367188 C96.4805962,50.1367188 95.9565129,50.0319021 95.5007814,49.8222656 C95.04505,49.6126292 94.6884455,49.3198261 94.4309572,48.9438477 C94.1734689,48.5678692 94.0447267,48.161135 94.0447267,47.7236328 L95.3093752,47.7236328 C95.3321617,48.1474631 95.5019192,48.48356 95.8186525,48.7319336 C96.1353859,48.9803072 96.5535132,49.1044922 97.073047,49.1044922 C97.5515651,49.1044922 97.935513,49.0076507 98.2249025,48.8139648 C98.514292,48.620279 98.6589845,48.3616553 98.6589845,48.0380859 Z M103.94043,50.1367188 C102.937821,50.1367188 102.122074,49.8074577 101.493164,49.1489258 C100.864255,48.4903938 100.549805,47.609706 100.549805,46.5068359 L100.549805,46.2744141 C100.549805,45.5406864 100.68994,44.8855823 100.970215,44.309082 C101.25049,43.7325818 101.642413,43.2814144 102.145996,42.9555664 C102.64958,42.6297184 103.19531,42.4667969 103.783203,42.4667969 C104.744797,42.4667969 105.492185,42.7835255 106.025391,43.4169922 C106.558597,44.0504589 106.825195,44.9573509 106.825195,46.1376953 L106.825195,46.6640625 L101.814453,46.6640625 C101.832683,47.3932328 102.045734,47.9822569 102.453613,48.4311523 C102.861493,48.8800478 103.37988,49.1044922 104.008789,49.1044922 C104.455406,49.1044922 104.833657,49.0133473 105.143555,48.8310547 C105.453452,48.6487621 105.724608,48.4072281 105.957031,48.1064453 L106.729492,48.7080078 C106.109698,49.6604865 105.180019,50.1367188 103.94043,50.1367188 Z M103.783203,43.5058594 C103.272784,43.5058594 102.844403,43.6915672 102.498047,44.0629883 C102.151691,44.4344094 101.937501,44.9550748 101.855469,45.625 L105.560547,45.625 L105.560547,45.5292969 C105.524089,44.8867155 105.350913,44.3888364 105.041016,44.0356445 C104.731118,43.6824527 104.311852,43.5058594 103.783203,43.5058594 Z M111.163281,43.7382812 C110.971874,43.70638 110.76452,43.6904297 110.541211,43.6904297 C109.71178,43.6904297 109.14896,44.0436163 108.852735,44.75 L108.852735,50 L107.588086,50 L107.588086,42.6035156 L108.818555,42.6035156 L108.839063,43.4580078 C109.253778,42.7971972 109.841663,42.4667969 110.602735,42.4667969 C110.84883,42.4667969 111.035677,42.4986976 111.163281,42.5625 L111.163281,43.7382812 Z M115.932031,48.0380859 C115.932031,47.6962874 115.803289,47.4308278 115.545801,47.2416992 C115.288313,47.0525707 114.839424,46.8896491 114.199121,46.7529297 C113.558819,46.6162103 113.050686,46.4521494 112.674707,46.2607422 C112.298729,46.069335 112.020737,45.8414727 111.840723,45.5771484 C111.660709,45.3128242 111.570703,44.9983742 111.570703,44.6337891 C111.570703,44.0276662 111.827048,43.5149761 112.339746,43.0957031 C112.852444,42.6764302 113.507548,42.4667969 114.305078,42.4667969 C115.143624,42.4667969 115.823793,42.6832661 116.345606,43.1162109 C116.867418,43.5491558 117.128321,44.1028612 117.128321,44.7773438 L115.856836,44.7773438 C115.856836,44.4309879 115.709865,44.1324882 115.415918,43.8818359 C115.121971,43.6311836 114.751695,43.5058594 114.305078,43.5058594 C113.84479,43.5058594 113.484767,43.6061188 113.225,43.8066406 C112.965233,44.0071625 112.835352,44.2692041 112.835352,44.5927734 C112.835352,44.8981135 112.956119,45.1282544 113.197656,45.2832031 C113.439194,45.4381518 113.87555,45.5862623 114.506738,45.7275391 C115.137927,45.8688158 115.649477,46.0374339 116.041406,46.2333984 C116.433335,46.429363 116.72386,46.6652004 116.912988,46.940918 C117.102117,47.2166355 117.19668,47.5527324 117.19668,47.9492188 C117.19668,48.6100293 116.93236,49.1398092 116.403711,49.5385742 C115.875063,49.9373392 115.189197,50.1367188 114.346094,50.1367188 C113.753643,50.1367188 113.22956,50.0319021 112.773828,49.8222656 C112.318097,49.6126292 111.961492,49.3198261 111.704004,48.9438477 C111.446516,48.5678692 111.317774,48.161135 111.317774,47.7236328 L112.582422,47.7236328 C112.605209,48.1474631 112.774966,48.48356 113.091699,48.7319336 C113.408433,48.9803072 113.82656,49.1044922 114.346094,49.1044922 C114.824612,49.1044922 115.20856,49.0076507 115.497949,48.8139648 C115.787339,48.620279 115.932031,48.3616553 115.932031,48.0380859 Z M123.254688,46.8623047 L123.446094,48.1748047 L123.726367,46.9921875 L125.695117,40.046875 L126.802539,40.046875 L128.723438,46.9921875 L128.996875,48.1953125 L129.208789,46.8554688 L130.753711,40.046875 L132.073047,40.046875 L129.659961,50 L128.463672,50 L126.412891,42.7470703 L126.255664,41.9882812 L126.098438,42.7470703 L123.972461,50 L122.776172,50 L120.369922,40.046875 L121.682422,40.046875 L123.254688,46.8623047 Z M135.488281,50.1367188 C134.485672,50.1367188 133.669925,49.8074577 133.041016,49.1489258 C132.412106,48.4903938 132.097656,47.609706 132.097656,46.5068359 L132.097656,46.2744141 C132.097656,45.5406864 132.237792,44.8855823 132.518067,44.309082 C132.798341,43.7325818 133.190265,43.2814144 133.693848,42.9555664 C134.197431,42.6297184 134.743161,42.4667969 135.331055,42.4667969 C136.292648,42.4667969 137.040037,42.7835255 137.573242,43.4169922 C138.106448,44.0504589 138.373047,44.9573509 138.373047,46.1376953 L138.373047,46.6640625 L133.362305,46.6640625 C133.380534,47.3932328 133.593585,47.9822569 134.001465,48.4311523 C134.409345,48.8800478 134.927731,49.1044922 135.556641,49.1044922 C136.003258,49.1044922 136.381509,49.0133473 136.691406,48.8310547 C137.001304,48.6487621 137.27246,48.4072281 137.504883,48.1064453 L138.277344,48.7080078 C137.657549,49.6604865 136.727871,50.1367188 135.488281,50.1367188 Z M135.331055,43.5058594 C134.820636,43.5058594 134.392255,43.6915672 134.045899,44.0629883 C133.699543,44.4344094 133.485352,44.9550748 133.403321,45.625 L137.108399,45.625 L137.108399,45.5292969 C137.07194,44.8867155 136.898765,44.3888364 136.588867,44.0356445 C136.27897,43.6824527 135.859703,43.5058594 135.331055,43.5058594 Z M145.397657,46.3837891 C145.397657,47.514003 145.137893,48.4220343 144.61836,49.1079102 C144.098826,49.793786 143.401567,50.1367188 142.526563,50.1367188 C141.592313,50.1367188 140.86999,49.8063184 140.359571,49.1455078 L140.298047,50 L139.135938,50 L139.135938,39.5 L140.400586,39.5 L140.400586,43.4169922 C140.911005,42.7835255 141.6151,42.4667969 142.512891,42.4667969 C143.410682,42.4667969 144.115916,42.8063117 144.628614,43.4853516 C145.141311,44.1643914 145.397657,45.0940696 145.397657,46.2744141 L145.397657,46.3837891 Z M144.133008,46.2402344 C144.133008,45.3789019 143.966669,44.713544 143.633985,44.2441406 C143.301301,43.7747372 142.82279,43.5400391 142.198438,43.5400391 C141.364449,43.5400391 140.765171,43.927405 140.400586,44.7021484 L140.400586,47.9013672 C140.787958,48.6761106 141.391793,49.0634766 142.21211,49.0634766 C142.818232,49.0634766 143.289907,48.8287784 143.627149,48.359375 C143.96439,47.8899716 144.133008,47.1835985 144.133008,46.2402344 Z M154.750586,47.4023438 L150.580664,47.4023438 L149.644141,50 L148.290625,50 L152.091407,40.046875 L153.239844,40.046875 L157.047461,50 L155.700782,50 L154.750586,47.4023438 Z M150.977149,46.3222656 L154.360938,46.3222656 L152.665625,41.6669922 L150.977149,46.3222656 Z M158.999805,46.1035156 L158.999805,50 L157.687305,50 L157.687305,40.046875 L161.358203,40.046875 C162.447402,40.046875 163.300746,40.324867 163.918262,40.8808594 C164.535778,41.4368517 164.844532,42.172847 164.844532,43.0888672 C164.844532,44.0550179 164.542614,44.7989883 163.93877,45.3208008 C163.334926,45.8426133 162.470188,46.1035156 161.344532,46.1035156 L158.999805,46.1035156 Z M158.999805,45.0302734 L161.358203,45.0302734 C162.06003,45.0302734 162.597785,44.8650733 162.971485,44.534668 C163.345184,44.2042627 163.532032,43.7268911 163.532032,43.1025391 C163.532032,42.5100882 163.345184,42.0361346 162.971485,41.6806641 C162.597785,41.3251935 162.085095,41.1406251 161.433399,41.1269531 L158.999805,41.1269531 L158.999805,45.0302734 Z M167.227539,50 L165.915039,50 L165.915039,40.046875 L167.227539,40.046875 L167.227539,50 Z" id="Danmarks-Adressers-W" fill-opacity="0.6"></path>
            </g>
        </g>
    </g>
</svg>